%TF.GenerationSoftware,KiCad,Pcbnew,8.0.8*%
%TF.CreationDate,2025-03-31T14:22:43-05:00*%
%TF.ProjectId,Smart Tripod,536d6172-7420-4547-9269-706f642e6b69,rev?*%
%TF.SameCoordinates,Original*%
%TF.FileFunction,Paste,Top*%
%TF.FilePolarity,Positive*%
%FSLAX46Y46*%
G04 Gerber Fmt 4.6, Leading zero omitted, Abs format (unit mm)*
G04 Created by KiCad (PCBNEW 8.0.8) date 2025-03-31 14:22:43*
%MOMM*%
%LPD*%
G01*
G04 APERTURE LIST*
G04 Aperture macros list*
%AMRoundRect*
0 Rectangle with rounded corners*
0 $1 Rounding radius*
0 $2 $3 $4 $5 $6 $7 $8 $9 X,Y pos of 4 corners*
0 Add a 4 corners polygon primitive as box body*
4,1,4,$2,$3,$4,$5,$6,$7,$8,$9,$2,$3,0*
0 Add four circle primitives for the rounded corners*
1,1,$1+$1,$2,$3*
1,1,$1+$1,$4,$5*
1,1,$1+$1,$6,$7*
1,1,$1+$1,$8,$9*
0 Add four rect primitives between the rounded corners*
20,1,$1+$1,$2,$3,$4,$5,0*
20,1,$1+$1,$4,$5,$6,$7,0*
20,1,$1+$1,$6,$7,$8,$9,0*
20,1,$1+$1,$8,$9,$2,$3,0*%
G04 Aperture macros list end*
%ADD10RoundRect,0.250000X-0.450000X0.350000X-0.450000X-0.350000X0.450000X-0.350000X0.450000X0.350000X0*%
%ADD11RoundRect,0.250000X0.450000X-0.350000X0.450000X0.350000X-0.450000X0.350000X-0.450000X-0.350000X0*%
%ADD12RoundRect,0.250000X0.475000X-0.337500X0.475000X0.337500X-0.475000X0.337500X-0.475000X-0.337500X0*%
%ADD13RoundRect,0.250000X-0.850000X-0.350000X0.850000X-0.350000X0.850000X0.350000X-0.850000X0.350000X0*%
%ADD14RoundRect,0.250000X-1.275000X-1.125000X1.275000X-1.125000X1.275000X1.125000X-1.275000X1.125000X0*%
%ADD15RoundRect,0.250000X0.350000X0.450000X-0.350000X0.450000X-0.350000X-0.450000X0.350000X-0.450000X0*%
%ADD16RoundRect,0.250000X-0.475000X0.337500X-0.475000X-0.337500X0.475000X-0.337500X0.475000X0.337500X0*%
%ADD17RoundRect,0.250000X-0.337500X-0.475000X0.337500X-0.475000X0.337500X0.475000X-0.337500X0.475000X0*%
%ADD18RoundRect,0.162500X-0.162500X0.617500X-0.162500X-0.617500X0.162500X-0.617500X0.162500X0.617500X0*%
%ADD19RoundRect,0.250000X0.337500X0.475000X-0.337500X0.475000X-0.337500X-0.475000X0.337500X-0.475000X0*%
%ADD20RoundRect,0.250001X-0.924999X0.499999X-0.924999X-0.499999X0.924999X-0.499999X0.924999X0.499999X0*%
%ADD21R,3.429000X1.828800*%
%ADD22RoundRect,0.250000X-0.350000X-0.450000X0.350000X-0.450000X0.350000X0.450000X-0.350000X0.450000X0*%
%ADD23O,0.890000X1.550000*%
%ADD24O,1.250000X0.950000*%
%ADD25RoundRect,0.100000X0.100000X0.575000X-0.100000X0.575000X-0.100000X-0.575000X0.100000X-0.575000X0*%
%ADD26RoundRect,0.250000X0.475000X0.525000X-0.475000X0.525000X-0.475000X-0.525000X0.475000X-0.525000X0*%
%ADD27RoundRect,0.250000X0.500000X0.525000X-0.500000X0.525000X-0.500000X-0.525000X0.500000X-0.525000X0*%
%ADD28R,3.505200X1.397000*%
%ADD29R,8.458200X6.553200*%
%ADD30R,1.500000X0.900000*%
%ADD31R,0.900000X1.500000*%
%ADD32R,0.900000X0.900000*%
G04 APERTURE END LIST*
D10*
%TO.C,R3*%
X118500000Y-107000000D03*
X118500000Y-109000000D03*
%TD*%
D11*
%TO.C,R12*%
X152040000Y-118200000D03*
X152040000Y-116200000D03*
%TD*%
D12*
%TO.C,C6*%
X97500000Y-101037500D03*
X97500000Y-98962500D03*
%TD*%
D13*
%TO.C,U2*%
X127000000Y-86245000D03*
X127000000Y-88525000D03*
X127000000Y-90805000D03*
D14*
X131625000Y-87000000D03*
X131625000Y-90050000D03*
X134975000Y-87000000D03*
X134975000Y-90050000D03*
%TD*%
D15*
%TO.C,R16*%
X181462500Y-99270000D03*
X179462500Y-99270000D03*
%TD*%
D16*
%TO.C,C19*%
X149540000Y-116162500D03*
X149540000Y-118237500D03*
%TD*%
D15*
%TO.C,R5*%
X181462500Y-125500000D03*
X179462500Y-125500000D03*
%TD*%
D12*
%TO.C,C9*%
X114000000Y-101537500D03*
X114000000Y-99462500D03*
%TD*%
D11*
%TO.C,R34*%
X136500000Y-118220000D03*
X136500000Y-116220000D03*
%TD*%
D17*
%TO.C,C13*%
X179425000Y-112000000D03*
X181500000Y-112000000D03*
%TD*%
D15*
%TO.C,R1*%
X105500000Y-110500000D03*
X103500000Y-110500000D03*
%TD*%
D18*
%TO.C,U3*%
X100000000Y-104500000D03*
X99050000Y-104500000D03*
X98100000Y-104500000D03*
X98100000Y-107200000D03*
X99050000Y-107200000D03*
X100000000Y-107200000D03*
%TD*%
D11*
%TO.C,R19*%
X145540000Y-118200000D03*
X145540000Y-116200000D03*
%TD*%
D19*
%TO.C,C24*%
X135075000Y-108000000D03*
X133000000Y-108000000D03*
%TD*%
D12*
%TO.C,C3*%
X142500000Y-88037500D03*
X142500000Y-85962500D03*
%TD*%
%TO.C,C7*%
X103000000Y-107037500D03*
X103000000Y-104962500D03*
%TD*%
D15*
%TO.C,R29*%
X101500000Y-113000000D03*
X99500000Y-113000000D03*
%TD*%
D16*
%TO.C,C17*%
X140540000Y-116162500D03*
X140540000Y-118237500D03*
%TD*%
D20*
%TO.C,C25*%
X118000000Y-123875000D03*
X118000000Y-127125000D03*
%TD*%
D10*
%TO.C,R31*%
X113500000Y-111000000D03*
X113500000Y-113000000D03*
%TD*%
D11*
%TO.C,R11*%
X168270000Y-118220000D03*
X168270000Y-116220000D03*
%TD*%
D15*
%TO.C,R27*%
X105500000Y-113000000D03*
X103500000Y-113000000D03*
%TD*%
D17*
%TO.C,C26*%
X109962500Y-118500000D03*
X112037500Y-118500000D03*
%TD*%
D16*
%TO.C,C20*%
X157540000Y-116162500D03*
X157540000Y-118237500D03*
%TD*%
D21*
%TO.C,L4*%
X122500000Y-99231400D03*
X122500000Y-104768600D03*
%TD*%
D11*
%TO.C,R35*%
X134000000Y-118220000D03*
X134000000Y-116220000D03*
%TD*%
%TO.C,R18*%
X171040000Y-118220000D03*
X171040000Y-116220000D03*
%TD*%
D15*
%TO.C,R14*%
X181425000Y-114960000D03*
X179425000Y-114960000D03*
%TD*%
D22*
%TO.C,R36*%
X133000000Y-113000000D03*
X135000000Y-113000000D03*
%TD*%
D10*
%TO.C,R30*%
X118500000Y-111000000D03*
X118500000Y-113000000D03*
%TD*%
D16*
%TO.C,C11*%
X117000000Y-99462500D03*
X117000000Y-101537500D03*
%TD*%
D17*
%TO.C,C16*%
X179425000Y-96460000D03*
X181500000Y-96460000D03*
%TD*%
D15*
%TO.C,R17*%
X181462500Y-91460000D03*
X179462500Y-91460000D03*
%TD*%
%TO.C,R7*%
X181425000Y-117460000D03*
X179425000Y-117460000D03*
%TD*%
D23*
%TO.C,J1*%
X128000000Y-78000000D03*
D24*
X127000000Y-80700000D03*
X122000000Y-80700000D03*
D23*
X121000000Y-78000000D03*
D25*
X125800000Y-80700000D03*
X125150000Y-80700000D03*
X124500000Y-80700000D03*
X123850000Y-80700000D03*
X123200000Y-80700000D03*
D26*
X127525000Y-78000000D03*
D27*
X125500000Y-78000000D03*
X123500000Y-78000000D03*
D26*
X121475000Y-78000000D03*
%TD*%
D15*
%TO.C,R9*%
X181462500Y-93960000D03*
X179462500Y-93960000D03*
%TD*%
%TO.C,R28*%
X109500000Y-113000000D03*
X107500000Y-113000000D03*
%TD*%
D17*
%TO.C,C10*%
X179425000Y-128000000D03*
X181500000Y-128000000D03*
%TD*%
%TO.C,C15*%
X179405000Y-104270000D03*
X181480000Y-104270000D03*
%TD*%
%TO.C,C21*%
X140962500Y-105000000D03*
X143037500Y-105000000D03*
%TD*%
D10*
%TO.C,R32*%
X116000000Y-111000000D03*
X116000000Y-113000000D03*
%TD*%
D21*
%TO.C,L3*%
X108000000Y-107268600D03*
X108000000Y-101731400D03*
%TD*%
D22*
%TO.C,R37*%
X133000000Y-110500000D03*
X135000000Y-110500000D03*
%TD*%
D11*
%TO.C,R20*%
X154540000Y-118200000D03*
X154540000Y-116200000D03*
%TD*%
D19*
%TO.C,C8*%
X106537500Y-118500000D03*
X104462500Y-118500000D03*
%TD*%
D17*
%TO.C,C22*%
X139925000Y-92000000D03*
X142000000Y-92000000D03*
%TD*%
%TO.C,C14*%
X179425000Y-120000000D03*
X181500000Y-120000000D03*
%TD*%
D11*
%TO.C,R10*%
X143040000Y-118200000D03*
X143040000Y-116200000D03*
%TD*%
D19*
%TO.C,C12*%
X122537500Y-95000000D03*
X120462500Y-95000000D03*
%TD*%
D11*
%TO.C,R24*%
X168250000Y-103260000D03*
X168250000Y-101260000D03*
%TD*%
D10*
%TO.C,R33*%
X118500000Y-115000000D03*
X118500000Y-117000000D03*
%TD*%
D19*
%TO.C,C2*%
X122537500Y-88000000D03*
X120462500Y-88000000D03*
%TD*%
D10*
%TO.C,R4*%
X118500000Y-119000000D03*
X118500000Y-121000000D03*
%TD*%
D19*
%TO.C,C1*%
X122537500Y-90500000D03*
X120462500Y-90500000D03*
%TD*%
D18*
%TO.C,U4*%
X115450000Y-104650000D03*
X114500000Y-104650000D03*
X113550000Y-104650000D03*
X113550000Y-107350000D03*
X114500000Y-107350000D03*
X115450000Y-107350000D03*
%TD*%
D15*
%TO.C,R15*%
X181462500Y-107000000D03*
X179462500Y-107000000D03*
%TD*%
D11*
%TO.C,R21*%
X162540000Y-118200000D03*
X162540000Y-116200000D03*
%TD*%
D15*
%TO.C,R23*%
X138500000Y-105000000D03*
X136500000Y-105000000D03*
%TD*%
D12*
%TO.C,C5*%
X100000000Y-101037500D03*
X100000000Y-98962500D03*
%TD*%
D28*
%TO.C,U5*%
X113137400Y-128540000D03*
X113137400Y-126000000D03*
X113137400Y-123460000D03*
D29*
X101339100Y-126000000D03*
%TD*%
D15*
%TO.C,R13*%
X181462500Y-123000000D03*
X179462500Y-123000000D03*
%TD*%
D22*
%TO.C,R25*%
X179442500Y-88000000D03*
X181442500Y-88000000D03*
%TD*%
D11*
%TO.C,R22*%
X160040000Y-118200000D03*
X160040000Y-116200000D03*
%TD*%
D15*
%TO.C,R6*%
X181462500Y-109460000D03*
X179462500Y-109460000D03*
%TD*%
D30*
%TO.C,U1*%
X164000000Y-84650000D03*
X164000000Y-85920000D03*
X164000000Y-87190000D03*
X164000000Y-88460000D03*
X164000000Y-89730000D03*
X164000000Y-91000000D03*
X164000000Y-92270000D03*
X164000000Y-93540000D03*
X164000000Y-94810000D03*
X164000000Y-96080000D03*
X164000000Y-97350000D03*
X164000000Y-98620000D03*
X164000000Y-99890000D03*
X164000000Y-101160000D03*
D31*
X162235000Y-102410000D03*
X160965000Y-102410000D03*
X159695000Y-102410000D03*
X158425000Y-102410000D03*
X157155000Y-102410000D03*
X155885000Y-102410000D03*
X154615000Y-102410000D03*
X153345000Y-102410000D03*
X152075000Y-102410000D03*
X150805000Y-102410000D03*
X149535000Y-102410000D03*
X148265000Y-102410000D03*
D30*
X146500000Y-101160000D03*
X146500000Y-99890000D03*
X146500000Y-98620000D03*
X146500000Y-97350000D03*
X146500000Y-96080000D03*
X146500000Y-94810000D03*
X146500000Y-93540000D03*
X146500000Y-92270000D03*
X146500000Y-91000000D03*
X146500000Y-89730000D03*
X146500000Y-88460000D03*
X146500000Y-87190000D03*
X146500000Y-85920000D03*
X146500000Y-84650000D03*
D32*
X155150000Y-93770000D03*
X155150000Y-92370000D03*
X155150000Y-90970000D03*
X153750000Y-93770000D03*
X153750000Y-92370000D03*
X153750000Y-90970000D03*
X152350000Y-93770000D03*
X152350000Y-92370000D03*
X152350000Y-90970000D03*
%TD*%
D16*
%TO.C,C23*%
X131500000Y-116182500D03*
X131500000Y-118257500D03*
%TD*%
D15*
%TO.C,R26*%
X105500000Y-116000000D03*
X103500000Y-116000000D03*
%TD*%
D12*
%TO.C,C4*%
X139000000Y-88037500D03*
X139000000Y-85962500D03*
%TD*%
D15*
%TO.C,R2*%
X98500000Y-116000000D03*
X96500000Y-116000000D03*
%TD*%
%TO.C,R8*%
X181442500Y-101770000D03*
X179442500Y-101770000D03*
%TD*%
D16*
%TO.C,C18*%
X165540000Y-116162500D03*
X165540000Y-118237500D03*
%TD*%
M02*
