M48
; DRILL file {KiCad 8.0.8} date 2025-03-31T14:23:19-0500
; FORMAT={-:-/ absolute / inch / decimal}
; #@! TF.CreationDate,2025-03-31T14:23:19-05:00
; #@! TF.GenerationSoftware,Kicad,Pcbnew,8.0.8
; #@! TF.FileFunction,Plated,1,2,PTH
FMAT,2
INCH
; #@! TA.AperFunction,Plated,PTH,ViaDrill
T1C0.0118
; #@! TA.AperFunction,Plated,PTH,ComponentDrill
T2C0.0118
; #@! TA.AperFunction,Plated,PTH,ComponentDrill
T3C0.0197
; #@! TA.AperFunction,Plated,PTH,ComponentDrill
T4C0.0217
; #@! TA.AperFunction,Plated,PTH,ComponentDrill
T5C0.0315
; #@! TA.AperFunction,Plated,PTH,ComponentDrill
T6C0.0394
; #@! TA.AperFunction,Plated,PTH,ComponentDrill
T7C0.0433
; #@! TA.AperFunction,Plated,PTH,ComponentDrill
T8C0.0469
; #@! TA.AperFunction,Plated,PTH,ComponentDrill
T9C0.0669
%
G90
G05
T1
X3.7795Y-3.7402
X3.7795Y-4.311
X3.8189Y-4.7441
X3.8189Y-5.1378
X3.8386Y-4.4882
X3.8583Y-3.7598
X3.9173Y-4.3504
X3.9567Y-4.6457
X3.9961Y-3.3268
X3.9961Y-4.0945
X3.9961Y-4.5079
X4.0157Y-3.8386
X4.0551Y-4.2913
X4.0748Y-4.7244
X4.1535Y-3.6024
X4.1929Y-3.8976
X4.2323Y-4.7835
X4.252Y-4.311
X4.252Y-4.5472
X4.3504Y-4.9016
X4.3701Y-4.3307
X4.3898Y-4.5866
X4.4488Y-4.7441
X4.5276Y-3.8583
X4.5276Y-4.5079
X4.5472Y-4.7835
X4.5669Y-3.6614
X4.5669Y-4.9213
X4.5669Y-5.1181
X4.6063Y-4.0945
X4.6457Y-4.1535
X4.6654Y-3.3661
X4.6654Y-3.5236
X4.6654Y-3.937
X4.7638Y-3.6614
X4.8031Y-3.3268
X4.8031Y-4.685
X4.8622Y-3.6614
X4.8819Y-3.3071
X4.8819Y-3.5236
X4.9213Y-3.3071
X4.9213Y-3.4252
X4.9213Y-3.7992
X5.0Y-4.2126
X5.0197Y-3.3268
X5.0197Y-4.5866
X5.0394Y-3.6811
X5.0394Y-4.9016
X5.0591Y-4.7244
X5.0591Y-5.1181
X5.0787Y-3.4252
X5.0984Y-4.0945
X5.1181Y-3.3071
X5.1378Y-5.0394
X5.1575Y-4.5079
X5.2953Y-4.1339
X5.315Y-3.7795
X5.315Y-4.5079
X5.3346Y-3.3268
X5.3937Y-4.1929
X5.3937Y-4.2913
X5.3937Y-4.5276
X5.3937Y-4.7441
X5.4134Y-3.3268
X5.4331Y-4.3898
X5.4528Y-3.5433
X5.4921Y-4.311
X5.5118Y-4.9409
X5.5315Y-4.7244
X5.5512Y-3.3465
X5.6693Y-3.7008
X5.6693Y-4.4291
X5.689Y-3.563
X5.689Y-3.9173
X5.689Y-3.9961
X5.7087Y-3.7008
X5.7087Y-3.7992
X5.7283Y-4.5276
X5.748Y-4.0945
X5.7874Y-4.1339
X5.8071Y-4.7528
X5.8268Y-3.4843
X5.8268Y-3.563
X5.8268Y-4.1535
X5.8268Y-4.2913
X5.8465Y-4.1929
X5.8661Y-3.622
X5.8661Y-4.7047
X5.9252Y-3.7008
X5.9252Y-4.1142
X5.9646Y-3.8976
X5.9646Y-4.1142
X6.0039Y-3.937
X6.0236Y-4.1929
X6.0433Y-4.5669
X6.0433Y-5.0197
X6.0827Y-3.9567
X6.122Y-4.1732
X6.1417Y-4.7528
X6.1811Y-4.1339
X6.2598Y-4.3898
X6.2992Y-4.5276
X6.3976Y-4.5276
X6.4567Y-4.1142
X6.4764Y-4.7528
X6.4764Y-4.9409
X6.5551Y-4.1339
X6.5748Y-3.3465
X6.5748Y-3.878
X6.6535Y-3.5039
X6.6535Y-4.4882
X6.6732Y-3.7008
X6.6732Y-5.0787
X6.7323Y-4.1339
X6.7323Y-4.5276
X6.752Y-3.8583
X6.8504Y-3.6417
X6.8504Y-4.9409
X6.9094Y-4.6654
X6.9291Y-3.5039
X7.0079Y-4.2323
X7.0079Y-4.5276
X7.0079Y-4.8425
X7.009Y-3.6035
X7.009Y-3.9162
X7.126Y-3.5236
X7.2047Y-4.4488
X7.2047Y-5.0984
X7.2244Y-3.6417
X7.2244Y-3.8583
X7.2244Y-3.9173
X7.2244Y-4.1929
X7.2244Y-4.2717
X7.2244Y-4.5472
X7.2244Y-4.8425
X7.4213Y-4.8425
X7.4409Y-4.5276
T2
X5.998Y-3.6091
X5.998Y-3.6642
X6.0256Y-3.5815
X6.0256Y-3.6366
X6.0256Y-3.6917
X6.0531Y-3.6091
X6.0531Y-3.6642
X6.0807Y-3.5815
X6.0807Y-3.6366
X6.0807Y-3.6917
X6.1083Y-3.6091
X6.1083Y-3.6642
T5
X5.2953Y-5.0984
X5.4331Y-5.0984
X5.5709Y-5.0984
X5.7087Y-5.0984
X5.8465Y-5.0984
X5.9843Y-5.0984
X6.122Y-5.0984
X6.2598Y-5.0984
X6.3976Y-5.0984
X6.5354Y-5.0984
T6
X4.1339Y-3.138
X4.5669Y-3.138
T7
X4.1913Y-3.797
X4.2913Y-3.797
X4.3913Y-3.797
T8
X3.8976Y-3.4449
X3.8976Y-3.5449
X3.8976Y-3.6449
X4.8016Y-5.0102
X4.9016Y-5.0102
X5.0189Y-4.311
X5.0189Y-4.411
X5.1173Y-3.7583
X5.1173Y-3.8583
X5.1173Y-3.9583
X5.215Y-4.8425
X5.315Y-4.8425
X5.4913Y-3.7583
X5.4913Y-3.8583
X5.4913Y-3.9583
X5.589Y-4.8409
X5.689Y-4.8409
X5.9236Y-4.8409
X6.0236Y-4.8409
X6.2583Y-4.8409
X6.3583Y-4.8409
X6.5339Y-4.3016
X6.5945Y-4.8409
X6.6339Y-4.3016
X6.6945Y-4.8409
X6.7339Y-4.3016
X7.4008Y-3.7205
X7.4008Y-3.8205
X7.4016Y-4.3201
X7.4016Y-4.4201
X7.4016Y-4.95
X7.4016Y-5.05
X7.4024Y-3.4433
X7.4024Y-3.5433
X7.4024Y-4.0248
X7.4024Y-4.1248
X7.4024Y-4.6457
X7.4024Y-4.7457
T9
X4.252Y-3.5317
X4.4488Y-3.5317
T3
G00X4.7638Y-3.0837
M15
G01X4.7638Y-3.0581
M16
G05
G00X5.0394Y-3.0837
M15
G01X5.0394Y-3.0581
M16
G05
T4
G00X4.8091Y-3.1772
M15
G01X4.7972Y-3.1772
M16
G05
G00X5.0059Y-3.1772
M15
G01X4.9941Y-3.1772
M16
G05
M30
