%TF.GenerationSoftware,KiCad,Pcbnew,8.0.8*%
%TF.CreationDate,2025-03-31T14:22:43-05:00*%
%TF.ProjectId,Smart Tripod,536d6172-7420-4547-9269-706f642e6b69,rev?*%
%TF.SameCoordinates,Original*%
%TF.FileFunction,Copper,L2,Bot*%
%TF.FilePolarity,Positive*%
%FSLAX46Y46*%
G04 Gerber Fmt 4.6, Leading zero omitted, Abs format (unit mm)*
G04 Created by KiCad (PCBNEW 8.0.8) date 2025-03-31 14:22:43*
%MOMM*%
%LPD*%
G01*
G04 APERTURE LIST*
G04 Aperture macros list*
%AMRoundRect*
0 Rectangle with rounded corners*
0 $1 Rounding radius*
0 $2 $3 $4 $5 $6 $7 $8 $9 X,Y pos of 4 corners*
0 Add a 4 corners polygon primitive as box body*
4,1,4,$2,$3,$4,$5,$6,$7,$8,$9,$2,$3,0*
0 Add four circle primitives for the rounded corners*
1,1,$1+$1,$2,$3*
1,1,$1+$1,$4,$5*
1,1,$1+$1,$6,$7*
1,1,$1+$1,$8,$9*
0 Add four rect primitives between the rounded corners*
20,1,$1+$1,$2,$3,$4,$5,0*
20,1,$1+$1,$4,$5,$6,$7,0*
20,1,$1+$1,$6,$7,$8,$9,0*
20,1,$1+$1,$8,$9,$2,$3,0*%
G04 Aperture macros list end*
%TA.AperFunction,ComponentPad*%
%ADD10R,1.350000X1.350000*%
%TD*%
%TA.AperFunction,ComponentPad*%
%ADD11RoundRect,0.250000X-0.845000X0.620000X-0.845000X-0.620000X0.845000X-0.620000X0.845000X0.620000X0*%
%TD*%
%TA.AperFunction,ComponentPad*%
%ADD12O,2.190000X1.740000*%
%TD*%
%TA.AperFunction,ComponentPad*%
%ADD13RoundRect,0.250000X0.620000X0.845000X-0.620000X0.845000X-0.620000X-0.845000X0.620000X-0.845000X0*%
%TD*%
%TA.AperFunction,ComponentPad*%
%ADD14O,1.740000X2.190000*%
%TD*%
%TA.AperFunction,ComponentPad*%
%ADD15RoundRect,0.250000X-0.620000X-0.845000X0.620000X-0.845000X0.620000X0.845000X-0.620000X0.845000X0*%
%TD*%
%TA.AperFunction,ComponentPad*%
%ADD16C,2.550000*%
%TD*%
%TA.AperFunction,ComponentPad*%
%ADD17R,2.550000X2.550000*%
%TD*%
%TA.AperFunction,ComponentPad*%
%ADD18C,1.508000*%
%TD*%
%TA.AperFunction,HeatsinkPad*%
%ADD19O,0.890000X1.550000*%
%TD*%
%TA.AperFunction,HeatsinkPad*%
%ADD20O,1.250000X0.950000*%
%TD*%
%TA.AperFunction,ComponentPad*%
%ADD21R,1.905000X2.000000*%
%TD*%
%TA.AperFunction,ComponentPad*%
%ADD22O,1.905000X2.000000*%
%TD*%
%TA.AperFunction,HeatsinkPad*%
%ADD23C,0.600000*%
%TD*%
%TA.AperFunction,ViaPad*%
%ADD24C,0.600000*%
%TD*%
%TA.AperFunction,Conductor*%
%ADD25C,0.254000*%
%TD*%
%TA.AperFunction,Conductor*%
%ADD26C,0.381000*%
%TD*%
%TA.AperFunction,Conductor*%
%ADD27C,0.635000*%
%TD*%
G04 APERTURE END LIST*
D10*
%TO.P,J24,1,Pin_1*%
%TO.N,GND*%
X162500000Y-129500000D03*
%TD*%
D11*
%TO.P,J13,1,Pin_1*%
%TO.N,Net-(J13-Pin_1)*%
X188020000Y-87460000D03*
D12*
%TO.P,J13,2,Pin_2*%
%TO.N,Net-(J13-Pin_2)*%
X188020000Y-90000000D03*
%TD*%
D13*
%TO.P,J11,1,Pin_1*%
%TO.N,Net-(J11-Pin_1)*%
X153000000Y-122960000D03*
D14*
%TO.P,J11,2,Pin_2*%
%TO.N,GND*%
X150460000Y-122960000D03*
%TD*%
D11*
%TO.P,SW3,1,A*%
%TO.N,/POW_USB*%
X129980000Y-95460000D03*
D12*
%TO.P,SW3,2,B*%
%TO.N,Net-(SW3-B)*%
X129980000Y-98000000D03*
%TO.P,SW3,3,C*%
%TO.N,/POW_BUCK*%
X129980000Y-100540000D03*
%TD*%
D10*
%TO.P,J16,1,Pin_1*%
%TO.N,/IO3*%
X152000000Y-129500000D03*
%TD*%
D13*
%TO.P,J12,1,Pin_1*%
%TO.N,Net-(J12-Pin_1)*%
X161500000Y-122960000D03*
D14*
%TO.P,J12,2,Pin_2*%
%TO.N,GND*%
X158960000Y-122960000D03*
%TD*%
D15*
%TO.P,SW1,1,A*%
%TO.N,unconnected-(SW1-A-Pad1)*%
X165960000Y-109260000D03*
D14*
%TO.P,SW1,2,B*%
%TO.N,Net-(SW1-B)*%
X168500000Y-109260000D03*
%TO.P,SW1,3,C*%
%TO.N,GND*%
X171040000Y-109260000D03*
%TD*%
D11*
%TO.P,SW4,1,A*%
%TO.N,/Source*%
X99000000Y-87500000D03*
D12*
%TO.P,SW4,2,B*%
%TO.N,/Gate*%
X99000000Y-90040000D03*
%TO.P,SW4,3,C*%
%TO.N,GND*%
X99000000Y-92580000D03*
%TD*%
D15*
%TO.P,J14,1,Pin_1*%
%TO.N,Net-(J14-Pin_1)*%
X132460000Y-123000000D03*
D14*
%TO.P,J14,2,Pin_2*%
%TO.N,GND*%
X135000000Y-123000000D03*
%TD*%
D16*
%TO.P,J4,N,N*%
%TO.N,GND*%
X113000000Y-89705750D03*
D17*
%TO.P,J4,P,P*%
%TO.N,/Source*%
X108000000Y-89705750D03*
D18*
%TO.P,J4,S1*%
%TO.N,N/C*%
X116000000Y-79705750D03*
%TO.P,J4,S2*%
X105000000Y-79705750D03*
%TD*%
D10*
%TO.P,J21,1,Pin_1*%
%TO.N,/IO8*%
X148500000Y-129500000D03*
%TD*%
D13*
%TO.P,J10,1,Pin_1*%
%TO.N,Net-(J10-Pin_1)*%
X170040000Y-122960000D03*
D14*
%TO.P,J10,2,Pin_2*%
%TO.N,GND*%
X167500000Y-122960000D03*
%TD*%
D11*
%TO.P,J15,1,Pin_1*%
%TO.N,Net-(J15-Pin_1)*%
X127480000Y-109500000D03*
D12*
%TO.P,J15,2,Pin_2*%
%TO.N,GND*%
X127480000Y-112040000D03*
%TD*%
D11*
%TO.P,J8,1,Pin_1*%
%TO.N,Net-(J8-Pin_1)*%
X187980000Y-94500000D03*
D12*
%TO.P,J8,2,Pin_2*%
%TO.N,GND*%
X187980000Y-97040000D03*
%TD*%
D19*
%TO.P,J1,6,Shield*%
%TO.N,GND*%
X128000000Y-78000000D03*
D20*
X127000000Y-80700000D03*
X122000000Y-80700000D03*
D19*
X121000000Y-78000000D03*
%TD*%
D21*
%TO.P,Q1,1,D*%
%TO.N,+7.5V*%
X106460000Y-96445000D03*
D22*
%TO.P,Q1,2,G*%
%TO.N,/Gate*%
X109000000Y-96445000D03*
%TO.P,Q1,3,S*%
%TO.N,/Source*%
X111540000Y-96445000D03*
%TD*%
D10*
%TO.P,J19,1,Pin_1*%
%TO.N,/IO6*%
X141500000Y-129500000D03*
%TD*%
D11*
%TO.P,SW2,1,A*%
%TO.N,unconnected-(SW2-A-Pad1)*%
X139480000Y-95460000D03*
D12*
%TO.P,SW2,2,B*%
%TO.N,/EN*%
X139480000Y-98000000D03*
%TO.P,SW2,3,C*%
%TO.N,GND*%
X139480000Y-100540000D03*
%TD*%
D11*
%TO.P,J3,1,Pin_1*%
%TO.N,Net-(J3-Pin_1)*%
X188000000Y-125730000D03*
D12*
%TO.P,J3,2,Pin_2*%
%TO.N,GND*%
X188000000Y-128270000D03*
%TD*%
D10*
%TO.P,J22,1,Pin_1*%
%TO.N,/IO9*%
X155500000Y-129500000D03*
%TD*%
D11*
%TO.P,J5,1,Pin_1*%
%TO.N,Net-(J5-Pin_1)*%
X188000000Y-109730000D03*
D12*
%TO.P,J5,2,Pin_2*%
%TO.N,GND*%
X188000000Y-112270000D03*
%TD*%
D11*
%TO.P,J6,1,Pin_1*%
%TO.N,Net-(J6-Pin_1)*%
X188020000Y-118000000D03*
D12*
%TO.P,J6,2,Pin_2*%
%TO.N,GND*%
X188020000Y-120540000D03*
%TD*%
D10*
%TO.P,J25,1,Pin_1*%
%TO.N,GND*%
X166000000Y-129500000D03*
%TD*%
%TO.P,J18,1,Pin_1*%
%TO.N,/IO5*%
X138000000Y-129500000D03*
%TD*%
%TO.P,J20,1,Pin_1*%
%TO.N,/IO7*%
X145000000Y-129500000D03*
%TD*%
D13*
%TO.P,J9,1,Pin_1*%
%TO.N,Net-(J9-Pin_1)*%
X144500000Y-122960000D03*
D14*
%TO.P,J9,2,Pin_2*%
%TO.N,GND*%
X141960000Y-122960000D03*
%TD*%
D11*
%TO.P,J7,1,Pin_1*%
%TO.N,Net-(J7-Pin_1)*%
X188020000Y-102230000D03*
D12*
%TO.P,J7,2,Pin_2*%
%TO.N,GND*%
X188020000Y-104770000D03*
%TD*%
D10*
%TO.P,J17,1,Pin_1*%
%TO.N,/IO4*%
X134500000Y-129500000D03*
%TD*%
D13*
%TO.P,J2,1,Pin_1*%
%TO.N,GND*%
X124500000Y-127260000D03*
D14*
%TO.P,J2,2,Pin_2*%
%TO.N,Net-(J2-Pin_2)*%
X121960000Y-127260000D03*
%TD*%
D23*
%TO.P,U1,41,GND*%
%TO.N,GND*%
X155150000Y-93070000D03*
X155150000Y-91670000D03*
X154450000Y-93770000D03*
X154450000Y-92370000D03*
X154450000Y-90970000D03*
X153750000Y-93070000D03*
X153750000Y-91670000D03*
X153050000Y-93770000D03*
X153050000Y-92370000D03*
X153050000Y-90970000D03*
X152350000Y-93070000D03*
X152350000Y-91670000D03*
%TD*%
D10*
%TO.P,J23,1,Pin_1*%
%TO.N,/IO10*%
X159000000Y-129500000D03*
%TD*%
D24*
%TO.N,GND*%
X101500000Y-104000000D03*
X149000000Y-119500000D03*
X106500000Y-99000000D03*
X129000000Y-87000000D03*
X118500000Y-89500000D03*
X124000000Y-89500000D03*
X123500000Y-93000000D03*
X135500000Y-84500000D03*
X130000000Y-84000000D03*
X144000000Y-94000000D03*
X144500000Y-90500000D03*
X135000000Y-96000000D03*
X134500000Y-105000000D03*
X127000000Y-107000000D03*
X131000000Y-114500000D03*
X138000000Y-111500000D03*
X137000000Y-120500000D03*
X140000000Y-125500000D03*
X169500000Y-129000000D03*
X175500000Y-118500000D03*
X188500000Y-123000000D03*
X189000000Y-115000000D03*
X183000000Y-113000000D03*
X183500000Y-108500000D03*
X183500000Y-98000000D03*
X181000000Y-89500000D03*
X169000000Y-89000000D03*
X169500000Y-94000000D03*
X167000000Y-98500000D03*
X171000000Y-105000000D03*
X166500000Y-105000000D03*
X146000000Y-104000000D03*
X148000000Y-109000000D03*
X153000000Y-106500000D03*
X157000000Y-105000000D03*
X159000000Y-111500000D03*
X164500000Y-125500000D03*
X128000000Y-124500000D03*
X128500000Y-130000000D03*
X115500000Y-121500000D03*
X110500000Y-124500000D03*
X116000000Y-125000000D03*
X97000000Y-120500000D03*
X97000000Y-130500000D03*
X107500000Y-121500000D03*
X118500000Y-85500000D03*
X121000000Y-93000000D03*
X125000000Y-96500000D03*
X129500000Y-104000000D03*
X122000000Y-119000000D03*
X130500000Y-128000000D03*
X128500000Y-120000000D03*
X127500000Y-116500000D03*
X139500000Y-109500000D03*
X144000000Y-112500000D03*
X140500000Y-120000000D03*
%TO.N,+3V3*%
X137000000Y-106500000D03*
X137000000Y-109000000D03*
X171000000Y-115000000D03*
X162500000Y-115000000D03*
X160000000Y-115000000D03*
X153500000Y-116000000D03*
X145500000Y-115000000D03*
X137000000Y-115000000D03*
X135000000Y-114500000D03*
%TO.N,/IO10*%
X155500000Y-106000000D03*
%TO.N,/IO9*%
X154500000Y-100500000D03*
%TO.N,/IO3*%
X153500000Y-127500000D03*
X152500000Y-100000000D03*
%TO.N,/IO8*%
X151500000Y-99000000D03*
X151500000Y-104500000D03*
%TO.N,/IO7*%
X150500000Y-94000000D03*
X150500000Y-104500000D03*
%TO.N,/IO6*%
X149000000Y-92000000D03*
X148500000Y-106500000D03*
%TO.N,/IO5*%
X148000000Y-90500000D03*
X148000000Y-105500000D03*
%TO.N,/IO4*%
X147000000Y-105000000D03*
X148000000Y-88500000D03*
%TO.N,/SPEED-DOWN*%
X145000000Y-94000000D03*
X145000000Y-96500000D03*
%TO.N,/D+*%
X144500000Y-101500000D03*
%TO.N,/D-*%
X125000000Y-84000000D03*
X144500000Y-99500000D03*
%TO.N,/D+*%
X124000000Y-84000000D03*
%TO.N,/POW_USB*%
X125000000Y-87000000D03*
X128000000Y-93500000D03*
%TO.N,Net-(U4-VBST)*%
X118500000Y-100000000D03*
X118000000Y-105500000D03*
%TO.N,GND*%
X115000000Y-98000000D03*
X116000000Y-93000000D03*
X96000000Y-95000000D03*
X101500000Y-84500000D03*
X105500000Y-91500000D03*
X98000000Y-95500000D03*
X102000000Y-97500000D03*
X117000000Y-104000000D03*
X115000000Y-114500000D03*
X111500000Y-116500000D03*
X103500000Y-120000000D03*
X111000000Y-110000000D03*
X108000000Y-109500000D03*
X103000000Y-109000000D03*
X99500000Y-110500000D03*
X96000000Y-109500000D03*
X97500000Y-114000000D03*
X101500000Y-114500000D03*
X108000000Y-115500000D03*
X100500000Y-118000000D03*
X113000000Y-120500000D03*
X127500000Y-84500000D03*
X122000000Y-84500000D03*
X141000000Y-85000000D03*
X169000000Y-114000000D03*
X147500000Y-120720000D03*
X116000000Y-130000000D03*
X137500000Y-84500000D03*
X183500000Y-106500000D03*
X156000000Y-120720000D03*
X183000000Y-129500000D03*
X167000000Y-85000000D03*
X171500000Y-98000000D03*
X183500000Y-92500000D03*
X183500000Y-115500000D03*
X138500000Y-90000000D03*
X174000000Y-92500000D03*
X174000000Y-125500000D03*
X183500000Y-99500000D03*
X164000000Y-104500000D03*
X183500000Y-123000000D03*
X164500000Y-120720000D03*
X176000000Y-89000000D03*
%TO.N,+3V3*%
X178000000Y-115000000D03*
X178029607Y-91529607D03*
X178029607Y-99470393D03*
X178000000Y-107500000D03*
X178000000Y-123000000D03*
%TD*%
D25*
%TO.N,+3V3*%
X137000000Y-109000000D02*
X137000000Y-106500000D01*
X171000000Y-115000000D02*
X178000000Y-115000000D01*
X162500000Y-115000000D02*
X171000000Y-115000000D01*
X160000000Y-115000000D02*
X162500000Y-115000000D01*
X152500000Y-115000000D02*
X153500000Y-116000000D01*
X145500000Y-115000000D02*
X152500000Y-115000000D01*
X137000000Y-115000000D02*
X145500000Y-115000000D01*
X136500000Y-114500000D02*
X137000000Y-115000000D01*
X135000000Y-114500000D02*
X136500000Y-114500000D01*
%TO.N,/IO10*%
X156627000Y-107127000D02*
X155500000Y-106000000D01*
X156627000Y-127127000D02*
X156627000Y-107127000D01*
X159000000Y-129500000D02*
X156627000Y-127127000D01*
%TO.N,/IO9*%
X154500000Y-100500000D02*
X154651000Y-100651000D01*
X154651000Y-100651000D02*
X154651000Y-128651000D01*
X154651000Y-128651000D02*
X155500000Y-129500000D01*
%TO.N,/IO3*%
X154197000Y-126803000D02*
X153500000Y-127500000D01*
X154197000Y-101697000D02*
X154197000Y-126803000D01*
X152500000Y-100000000D02*
X154197000Y-101697000D01*
%TO.N,/IO8*%
X151500000Y-104500000D02*
X151500000Y-99000000D01*
%TO.N,/IO7*%
X150500000Y-104500000D02*
X150500000Y-94000000D01*
%TO.N,/IO6*%
X149000000Y-106000000D02*
X149000000Y-92000000D01*
X148500000Y-106500000D02*
X149000000Y-106000000D01*
%TO.N,/IO5*%
X148000000Y-105500000D02*
X148000000Y-90500000D01*
%TO.N,/IO4*%
X147000000Y-105000000D02*
X147000000Y-89500000D01*
X147000000Y-89500000D02*
X148000000Y-88500000D01*
%TO.N,/SPEED-DOWN*%
X145000000Y-96500000D02*
X145000000Y-94000000D01*
%TO.N,/D+*%
X144000000Y-101500000D02*
X144500000Y-101500000D01*
X143500000Y-101000000D02*
X144000000Y-101500000D01*
%TO.N,/D-*%
X134500000Y-93500000D02*
X125000000Y-84000000D01*
X144500000Y-99500000D02*
X144500000Y-97357947D01*
X144500000Y-97357947D02*
X140642053Y-93500000D01*
X140642053Y-93500000D02*
X134500000Y-93500000D01*
%TO.N,/D+*%
X143500000Y-97000000D02*
X143500000Y-101000000D01*
X134263000Y-94263000D02*
X140763000Y-94263000D01*
X124000000Y-84000000D02*
X134263000Y-94263000D01*
X140763000Y-94263000D02*
X143500000Y-97000000D01*
D26*
%TO.N,/POW_USB*%
X125000000Y-87000000D02*
X125000000Y-92500000D01*
X126000000Y-93500000D02*
X128000000Y-93500000D01*
X125000000Y-92500000D02*
X126000000Y-93500000D01*
D27*
%TO.N,Net-(U4-VBST)*%
X118500000Y-103000000D02*
X118500000Y-100000000D01*
X118000000Y-105500000D02*
X118000000Y-103500000D01*
X118000000Y-103500000D02*
X118500000Y-103000000D01*
D25*
%TO.N,+3V3*%
X178000000Y-123000000D02*
X178000000Y-115000000D01*
X178000000Y-107500000D02*
X178000000Y-99500000D01*
X178029607Y-99470393D02*
X178029607Y-91529607D01*
X178000000Y-91500000D02*
X178029607Y-91529607D01*
X178000000Y-115000000D02*
X178000000Y-107500000D01*
X178000000Y-99500000D02*
X178029607Y-99470393D01*
%TD*%
%TA.AperFunction,Conductor*%
%TO.N,GND*%
G36*
X123219142Y-83519685D02*
G01*
X123264897Y-83572489D01*
X123274841Y-83641647D01*
X123269145Y-83664954D01*
X123214632Y-83820742D01*
X123214630Y-83820750D01*
X123194435Y-83999996D01*
X123194435Y-84000003D01*
X123214630Y-84179249D01*
X123214631Y-84179254D01*
X123274211Y-84349523D01*
X123370184Y-84502262D01*
X123497738Y-84629816D01*
X123650478Y-84725789D01*
X123820745Y-84785368D01*
X123864635Y-84790313D01*
X123929048Y-84817378D01*
X123938433Y-84825852D01*
X125095422Y-85982841D01*
X125128907Y-86044164D01*
X125123923Y-86113856D01*
X125082051Y-86169789D01*
X125016587Y-86194206D01*
X125006964Y-86194013D01*
X125006964Y-86194435D01*
X124999996Y-86194435D01*
X124820750Y-86214630D01*
X124820745Y-86214631D01*
X124650476Y-86274211D01*
X124497737Y-86370184D01*
X124370184Y-86497737D01*
X124274211Y-86650476D01*
X124214631Y-86820745D01*
X124214630Y-86820750D01*
X124194435Y-86999996D01*
X124194435Y-87000003D01*
X124214630Y-87179249D01*
X124214631Y-87179254D01*
X124274211Y-87349524D01*
X124289993Y-87374639D01*
X124309000Y-87440612D01*
X124309000Y-92431943D01*
X124309000Y-92568057D01*
X124309000Y-92568059D01*
X124308999Y-92568059D01*
X124335553Y-92701551D01*
X124335556Y-92701561D01*
X124387642Y-92827309D01*
X124387644Y-92827312D01*
X124463263Y-92940485D01*
X124463269Y-92940492D01*
X125559510Y-94036732D01*
X125559511Y-94036733D01*
X125559514Y-94036735D01*
X125624214Y-94079966D01*
X125672689Y-94112356D01*
X125672691Y-94112357D01*
X125672695Y-94112359D01*
X125798438Y-94164443D01*
X125798443Y-94164445D01*
X125798447Y-94164445D01*
X125798448Y-94164446D01*
X125931939Y-94191000D01*
X125931942Y-94191000D01*
X125931943Y-94191000D01*
X126068057Y-94191000D01*
X127559387Y-94191000D01*
X127625359Y-94210006D01*
X127642654Y-94220873D01*
X127650478Y-94225789D01*
X127788652Y-94274138D01*
X127820745Y-94285368D01*
X127820750Y-94285369D01*
X127999996Y-94305565D01*
X128000000Y-94305565D01*
X128000004Y-94305565D01*
X128179249Y-94285369D01*
X128179252Y-94285368D01*
X128179255Y-94285368D01*
X128349522Y-94225789D01*
X128359514Y-94219510D01*
X128426748Y-94200508D01*
X128493584Y-94220873D01*
X128538801Y-94274138D01*
X128548041Y-94343394D01*
X128531028Y-94389598D01*
X128450189Y-94520659D01*
X128450185Y-94520668D01*
X128422349Y-94604670D01*
X128395001Y-94687203D01*
X128395001Y-94687204D01*
X128395000Y-94687204D01*
X128384500Y-94789983D01*
X128384500Y-96130001D01*
X128384501Y-96130018D01*
X128395000Y-96232796D01*
X128395001Y-96232799D01*
X128450185Y-96399331D01*
X128450186Y-96399334D01*
X128542288Y-96548656D01*
X128666344Y-96672712D01*
X128815666Y-96764814D01*
X128815668Y-96764814D01*
X128815669Y-96764815D01*
X128816348Y-96765132D01*
X128816735Y-96765473D01*
X128821813Y-96768605D01*
X128821277Y-96769472D01*
X128868787Y-96811304D01*
X128887939Y-96878498D01*
X128867723Y-96945379D01*
X128851625Y-96965195D01*
X128709640Y-97107180D01*
X128582843Y-97281700D01*
X128484909Y-97473908D01*
X128418245Y-97679077D01*
X128384500Y-97892133D01*
X128384500Y-98107866D01*
X128416456Y-98309627D01*
X128418246Y-98320926D01*
X128484908Y-98526089D01*
X128582843Y-98718299D01*
X128709641Y-98892821D01*
X128862179Y-99045359D01*
X128966109Y-99120869D01*
X129033294Y-99169682D01*
X129075959Y-99225012D01*
X129081938Y-99294626D01*
X129049332Y-99356421D01*
X129033294Y-99370318D01*
X128862179Y-99494641D01*
X128862177Y-99494643D01*
X128862176Y-99494643D01*
X128709643Y-99647176D01*
X128709643Y-99647177D01*
X128709641Y-99647179D01*
X128660635Y-99714630D01*
X128582843Y-99821700D01*
X128484909Y-100013908D01*
X128418245Y-100219077D01*
X128384500Y-100432133D01*
X128384500Y-100647866D01*
X128418020Y-100859500D01*
X128418246Y-100860926D01*
X128484908Y-101066089D01*
X128582843Y-101258299D01*
X128709641Y-101432821D01*
X128862179Y-101585359D01*
X129036701Y-101712157D01*
X129228911Y-101810092D01*
X129434074Y-101876754D01*
X129513973Y-101889408D01*
X129647134Y-101910500D01*
X129647139Y-101910500D01*
X130312866Y-101910500D01*
X130431230Y-101891752D01*
X130525926Y-101876754D01*
X130731089Y-101810092D01*
X130923299Y-101712157D01*
X131097821Y-101585359D01*
X131250359Y-101432821D01*
X131377157Y-101258299D01*
X131475092Y-101066089D01*
X131541754Y-100860926D01*
X131562793Y-100728092D01*
X131575500Y-100647866D01*
X131575500Y-100432133D01*
X131549784Y-100269772D01*
X131541754Y-100219074D01*
X131475092Y-100013911D01*
X131377157Y-99821701D01*
X131250359Y-99647179D01*
X131097821Y-99494641D01*
X130926704Y-99370317D01*
X130884040Y-99314988D01*
X130878061Y-99245374D01*
X130910667Y-99183580D01*
X130926702Y-99169684D01*
X131097821Y-99045359D01*
X131250359Y-98892821D01*
X131377157Y-98718299D01*
X131475092Y-98526089D01*
X131541754Y-98320926D01*
X131571777Y-98131370D01*
X131575500Y-98107866D01*
X131575500Y-97892133D01*
X131543062Y-97687335D01*
X131541754Y-97679074D01*
X131475092Y-97473911D01*
X131377157Y-97281701D01*
X131250359Y-97107179D01*
X131108375Y-96965195D01*
X131074890Y-96903872D01*
X131079874Y-96834180D01*
X131121746Y-96778247D01*
X131143657Y-96765129D01*
X131144322Y-96764817D01*
X131144334Y-96764814D01*
X131293656Y-96672712D01*
X131417712Y-96548656D01*
X131509814Y-96399334D01*
X131564999Y-96232797D01*
X131575500Y-96130009D01*
X131575499Y-94789992D01*
X131564999Y-94687203D01*
X131509814Y-94520666D01*
X131417712Y-94371344D01*
X131293656Y-94247288D01*
X131159347Y-94164446D01*
X131144336Y-94155187D01*
X131144331Y-94155185D01*
X131142862Y-94154698D01*
X130977797Y-94100001D01*
X130977795Y-94100000D01*
X130875010Y-94089500D01*
X129084998Y-94089500D01*
X129084981Y-94089501D01*
X128982203Y-94100000D01*
X128982200Y-94100001D01*
X128815668Y-94155185D01*
X128815661Y-94155188D01*
X128809001Y-94159297D01*
X128741608Y-94177736D01*
X128674945Y-94156812D01*
X128630177Y-94103170D01*
X128621516Y-94033839D01*
X128638911Y-93987787D01*
X128725789Y-93849522D01*
X128785368Y-93679255D01*
X128785369Y-93679249D01*
X128805565Y-93500003D01*
X128805565Y-93499996D01*
X128785369Y-93320750D01*
X128785368Y-93320745D01*
X128741433Y-93195186D01*
X128725789Y-93150478D01*
X128629816Y-92997738D01*
X128502262Y-92870184D01*
X128349523Y-92774211D01*
X128179254Y-92714631D01*
X128179249Y-92714630D01*
X128000004Y-92694435D01*
X127999996Y-92694435D01*
X127820750Y-92714630D01*
X127820745Y-92714631D01*
X127650476Y-92774211D01*
X127625359Y-92789994D01*
X127559387Y-92809000D01*
X126337583Y-92809000D01*
X126270544Y-92789315D01*
X126249902Y-92772681D01*
X125727319Y-92250097D01*
X125693834Y-92188774D01*
X125691000Y-92162416D01*
X125691000Y-87440612D01*
X125710007Y-87374639D01*
X125725788Y-87349524D01*
X125785368Y-87179254D01*
X125785369Y-87179249D01*
X125805565Y-87000003D01*
X125805565Y-86993036D01*
X125808562Y-86993036D01*
X125818288Y-86937368D01*
X125865615Y-86885968D01*
X125933217Y-86868314D01*
X125999632Y-86890012D01*
X126017158Y-86904577D01*
X133775589Y-94663008D01*
X133862992Y-94750411D01*
X133862994Y-94750413D01*
X133862996Y-94750414D01*
X133965756Y-94819076D01*
X133965758Y-94819077D01*
X133965767Y-94819083D01*
X133990772Y-94829440D01*
X134013071Y-94838677D01*
X134055254Y-94856149D01*
X134079966Y-94866386D01*
X134201192Y-94890499D01*
X134201196Y-94890500D01*
X134201197Y-94890500D01*
X134324803Y-94890500D01*
X137760500Y-94890500D01*
X137827539Y-94910185D01*
X137873294Y-94962989D01*
X137884500Y-95014500D01*
X137884500Y-96130001D01*
X137884501Y-96130018D01*
X137895000Y-96232796D01*
X137895001Y-96232799D01*
X137950185Y-96399331D01*
X137950186Y-96399334D01*
X138042288Y-96548656D01*
X138166344Y-96672712D01*
X138315666Y-96764814D01*
X138315668Y-96764814D01*
X138315669Y-96764815D01*
X138316348Y-96765132D01*
X138316735Y-96765473D01*
X138321813Y-96768605D01*
X138321277Y-96769472D01*
X138368787Y-96811304D01*
X138387939Y-96878498D01*
X138367723Y-96945379D01*
X138351625Y-96965195D01*
X138209640Y-97107180D01*
X138082843Y-97281700D01*
X137984909Y-97473908D01*
X137918245Y-97679077D01*
X137884500Y-97892133D01*
X137884500Y-98107866D01*
X137916456Y-98309627D01*
X137918246Y-98320926D01*
X137984908Y-98526089D01*
X138082843Y-98718299D01*
X138209641Y-98892821D01*
X138362179Y-99045359D01*
X138533720Y-99169991D01*
X138576385Y-99225321D01*
X138582364Y-99294935D01*
X138549758Y-99356730D01*
X138533720Y-99370627D01*
X138362503Y-99495024D01*
X138210025Y-99647502D01*
X138210025Y-99647503D01*
X138083271Y-99821963D01*
X137985372Y-100014098D01*
X137918733Y-100219190D01*
X137907519Y-100290000D01*
X138937291Y-100290000D01*
X138925548Y-100310339D01*
X138885000Y-100461667D01*
X138885000Y-100618333D01*
X138925548Y-100769661D01*
X138937291Y-100790000D01*
X137907519Y-100790000D01*
X137918733Y-100860809D01*
X137985372Y-101065901D01*
X138083271Y-101258036D01*
X138210025Y-101432496D01*
X138210025Y-101432497D01*
X138362502Y-101584974D01*
X138536963Y-101711728D01*
X138729098Y-101809627D01*
X138934190Y-101876265D01*
X139147180Y-101910000D01*
X139230000Y-101910000D01*
X139230000Y-101082709D01*
X139250339Y-101094452D01*
X139401667Y-101135000D01*
X139558333Y-101135000D01*
X139709661Y-101094452D01*
X139730000Y-101082709D01*
X139730000Y-101910000D01*
X139812820Y-101910000D01*
X140025809Y-101876265D01*
X140230901Y-101809627D01*
X140423036Y-101711728D01*
X140597496Y-101584974D01*
X140597497Y-101584974D01*
X140749974Y-101432497D01*
X140749974Y-101432496D01*
X140876728Y-101258036D01*
X140974627Y-101065901D01*
X141041266Y-100860809D01*
X141052481Y-100790000D01*
X140022709Y-100790000D01*
X140034452Y-100769661D01*
X140075000Y-100618333D01*
X140075000Y-100461667D01*
X140034452Y-100310339D01*
X140022709Y-100290000D01*
X141052481Y-100290000D01*
X141041266Y-100219190D01*
X140974627Y-100014098D01*
X140876728Y-99821963D01*
X140749974Y-99647503D01*
X140749974Y-99647502D01*
X140597497Y-99495025D01*
X140426279Y-99370627D01*
X140383614Y-99315297D01*
X140377635Y-99245683D01*
X140410241Y-99183888D01*
X140426280Y-99169991D01*
X140597821Y-99045359D01*
X140750359Y-98892821D01*
X140877157Y-98718299D01*
X140975092Y-98526089D01*
X141041754Y-98320926D01*
X141071777Y-98131370D01*
X141075500Y-98107866D01*
X141075500Y-97892133D01*
X141043062Y-97687335D01*
X141041754Y-97679074D01*
X140975092Y-97473911D01*
X140877157Y-97281701D01*
X140750359Y-97107179D01*
X140608375Y-96965195D01*
X140574890Y-96903872D01*
X140579874Y-96834180D01*
X140621746Y-96778247D01*
X140643657Y-96765129D01*
X140644322Y-96764817D01*
X140644334Y-96764814D01*
X140793656Y-96672712D01*
X140917712Y-96548656D01*
X141009814Y-96399334D01*
X141064999Y-96232797D01*
X141075500Y-96130009D01*
X141075499Y-95762278D01*
X141095183Y-95695241D01*
X141147987Y-95649486D01*
X141217146Y-95639542D01*
X141280701Y-95668567D01*
X141287180Y-95674599D01*
X142836181Y-97223600D01*
X142869666Y-97284923D01*
X142872500Y-97311281D01*
X142872500Y-101061807D01*
X142896612Y-101183028D01*
X142896615Y-101183038D01*
X142914323Y-101225786D01*
X142914324Y-101225790D01*
X142943915Y-101297230D01*
X142974619Y-101343182D01*
X142974619Y-101343183D01*
X143012585Y-101400003D01*
X143012591Y-101400011D01*
X143512589Y-101900008D01*
X143569500Y-101956919D01*
X143599994Y-101987413D01*
X143599996Y-101987414D01*
X143702756Y-102056076D01*
X143702758Y-102056077D01*
X143702767Y-102056083D01*
X143727772Y-102066440D01*
X143750071Y-102075677D01*
X143792254Y-102093149D01*
X143816966Y-102103386D01*
X143938192Y-102127499D01*
X143938196Y-102127500D01*
X143938197Y-102127500D01*
X143958328Y-102127500D01*
X144024299Y-102146505D01*
X144150478Y-102225789D01*
X144320745Y-102285368D01*
X144320750Y-102285369D01*
X144499996Y-102305565D01*
X144500000Y-102305565D01*
X144500004Y-102305565D01*
X144679249Y-102285369D01*
X144679252Y-102285368D01*
X144679255Y-102285368D01*
X144849522Y-102225789D01*
X145002262Y-102129816D01*
X145129816Y-102002262D01*
X145225789Y-101849522D01*
X145285368Y-101679255D01*
X145285369Y-101679249D01*
X145305565Y-101500003D01*
X145305565Y-101499996D01*
X145285369Y-101320750D01*
X145285368Y-101320745D01*
X145237181Y-101183035D01*
X145225789Y-101150478D01*
X145220048Y-101141342D01*
X145170071Y-101061803D01*
X145129816Y-100997738D01*
X145002262Y-100870184D01*
X144985259Y-100859500D01*
X144849523Y-100774211D01*
X144679254Y-100714631D01*
X144679249Y-100714630D01*
X144500004Y-100694435D01*
X144499996Y-100694435D01*
X144320746Y-100714631D01*
X144320745Y-100714631D01*
X144292453Y-100724531D01*
X144222674Y-100728092D01*
X144162047Y-100693362D01*
X144129821Y-100631369D01*
X144127500Y-100607489D01*
X144127500Y-100392510D01*
X144147185Y-100325471D01*
X144199989Y-100279716D01*
X144269147Y-100269772D01*
X144292451Y-100275467D01*
X144320745Y-100285368D01*
X144320748Y-100285368D01*
X144320750Y-100285369D01*
X144499996Y-100305565D01*
X144500000Y-100305565D01*
X144500004Y-100305565D01*
X144679249Y-100285369D01*
X144679252Y-100285368D01*
X144679255Y-100285368D01*
X144849522Y-100225789D01*
X145002262Y-100129816D01*
X145129816Y-100002262D01*
X145225789Y-99849522D01*
X145285368Y-99679255D01*
X145285369Y-99679249D01*
X145305565Y-99500003D01*
X145305565Y-99499996D01*
X145285369Y-99320750D01*
X145285368Y-99320745D01*
X145267644Y-99270092D01*
X145225789Y-99150478D01*
X145207184Y-99120869D01*
X145146506Y-99024300D01*
X145127500Y-98958328D01*
X145127500Y-97391460D01*
X145147185Y-97324421D01*
X145199989Y-97278666D01*
X145210530Y-97274424D01*
X145349522Y-97225789D01*
X145502262Y-97129816D01*
X145629816Y-97002262D01*
X145725789Y-96849522D01*
X145785368Y-96679255D01*
X145785886Y-96674662D01*
X145805565Y-96500003D01*
X145805565Y-96499996D01*
X145785369Y-96320750D01*
X145785368Y-96320745D01*
X145725789Y-96150478D01*
X145712927Y-96130009D01*
X145646506Y-96024300D01*
X145627500Y-95958328D01*
X145627500Y-94541671D01*
X145646507Y-94475698D01*
X145725788Y-94349524D01*
X145770805Y-94220873D01*
X145785368Y-94179255D01*
X145788080Y-94155185D01*
X145805565Y-94000003D01*
X145805565Y-93999996D01*
X145785369Y-93820750D01*
X145785368Y-93820745D01*
X145761218Y-93751728D01*
X145725789Y-93650478D01*
X145629816Y-93497738D01*
X145502262Y-93370184D01*
X145349523Y-93274211D01*
X145179254Y-93214631D01*
X145179249Y-93214630D01*
X145000004Y-93194435D01*
X144999996Y-93194435D01*
X144820750Y-93214630D01*
X144820745Y-93214631D01*
X144650476Y-93274211D01*
X144497737Y-93370184D01*
X144370184Y-93497737D01*
X144274211Y-93650476D01*
X144214631Y-93820745D01*
X144214630Y-93820750D01*
X144194435Y-93999996D01*
X144194435Y-94000003D01*
X144214630Y-94179249D01*
X144214631Y-94179254D01*
X144274211Y-94349524D01*
X144353493Y-94475698D01*
X144372500Y-94541671D01*
X144372500Y-95958328D01*
X144353492Y-96024302D01*
X144320561Y-96076709D01*
X144268226Y-96122999D01*
X144199172Y-96133646D01*
X144135324Y-96105270D01*
X144127888Y-96098416D01*
X141042064Y-93012591D01*
X141042063Y-93012590D01*
X141019836Y-92997739D01*
X141019835Y-92997738D01*
X140939292Y-92943920D01*
X140939279Y-92943913D01*
X140905838Y-92930062D01*
X140825088Y-92896614D01*
X140825080Y-92896612D01*
X140703860Y-92872500D01*
X140703856Y-92872500D01*
X134811281Y-92872500D01*
X134744242Y-92852815D01*
X134723600Y-92836181D01*
X128677402Y-86789983D01*
X186424500Y-86789983D01*
X186424500Y-88130001D01*
X186424501Y-88130018D01*
X186435000Y-88232796D01*
X186435001Y-88232799D01*
X186484729Y-88382866D01*
X186490186Y-88399334D01*
X186582288Y-88548656D01*
X186706344Y-88672712D01*
X186855666Y-88764814D01*
X186855668Y-88764814D01*
X186855669Y-88764815D01*
X186856348Y-88765132D01*
X186856735Y-88765473D01*
X186861813Y-88768605D01*
X186861277Y-88769472D01*
X186908787Y-88811304D01*
X186927939Y-88878498D01*
X186907723Y-88945379D01*
X186891625Y-88965195D01*
X186749640Y-89107180D01*
X186622843Y-89281700D01*
X186524909Y-89473908D01*
X186458245Y-89679077D01*
X186424500Y-89892133D01*
X186424500Y-90107866D01*
X186443907Y-90230393D01*
X186458246Y-90320926D01*
X186524908Y-90526089D01*
X186622843Y-90718299D01*
X186749641Y-90892821D01*
X186902179Y-91045359D01*
X187076701Y-91172157D01*
X187268911Y-91270092D01*
X187474074Y-91336754D01*
X187553973Y-91349408D01*
X187687134Y-91370500D01*
X187687139Y-91370500D01*
X188352866Y-91370500D01*
X188471230Y-91351752D01*
X188565926Y-91336754D01*
X188771089Y-91270092D01*
X188963299Y-91172157D01*
X189137821Y-91045359D01*
X189290359Y-90892821D01*
X189417157Y-90718299D01*
X189515092Y-90526089D01*
X189581754Y-90320926D01*
X189596752Y-90226230D01*
X189615500Y-90107866D01*
X189615500Y-89892133D01*
X189587386Y-89714632D01*
X189581754Y-89679074D01*
X189515092Y-89473911D01*
X189417157Y-89281701D01*
X189290359Y-89107179D01*
X189148375Y-88965195D01*
X189114890Y-88903872D01*
X189119874Y-88834180D01*
X189161746Y-88778247D01*
X189183657Y-88765129D01*
X189184322Y-88764817D01*
X189184334Y-88764814D01*
X189333656Y-88672712D01*
X189457712Y-88548656D01*
X189549814Y-88399334D01*
X189604999Y-88232797D01*
X189615500Y-88130009D01*
X189615499Y-86789992D01*
X189604999Y-86687203D01*
X189549814Y-86520666D01*
X189457712Y-86371344D01*
X189333656Y-86247288D01*
X189240888Y-86190069D01*
X189184336Y-86155187D01*
X189184331Y-86155185D01*
X189182862Y-86154698D01*
X189017797Y-86100001D01*
X189017795Y-86100000D01*
X188915010Y-86089500D01*
X187124998Y-86089500D01*
X187124981Y-86089501D01*
X187022203Y-86100000D01*
X187022200Y-86100001D01*
X186855668Y-86155185D01*
X186855663Y-86155187D01*
X186706342Y-86247289D01*
X186582289Y-86371342D01*
X186490187Y-86520663D01*
X186490185Y-86520668D01*
X186462349Y-86604670D01*
X186435001Y-86687203D01*
X186435001Y-86687204D01*
X186435000Y-86687204D01*
X186424500Y-86789983D01*
X128677402Y-86789983D01*
X125825852Y-83938433D01*
X125792367Y-83877110D01*
X125790314Y-83864648D01*
X125785368Y-83820745D01*
X125785367Y-83820742D01*
X125730855Y-83664954D01*
X125727294Y-83595176D01*
X125762023Y-83534548D01*
X125824016Y-83502321D01*
X125847897Y-83500000D01*
X191575500Y-83500000D01*
X191642539Y-83519685D01*
X191688294Y-83572489D01*
X191699500Y-83624000D01*
X191699500Y-130876000D01*
X191679815Y-130943039D01*
X191627011Y-130988794D01*
X191575500Y-131000000D01*
X95124000Y-131000000D01*
X95056961Y-130980315D01*
X95011206Y-130927511D01*
X95000000Y-130876000D01*
X95000000Y-126927133D01*
X120589500Y-126927133D01*
X120589500Y-127592866D01*
X120613453Y-127744098D01*
X120623246Y-127805926D01*
X120689908Y-128011089D01*
X120787843Y-128203299D01*
X120914641Y-128377821D01*
X121067179Y-128530359D01*
X121241701Y-128657157D01*
X121433911Y-128755092D01*
X121639074Y-128821754D01*
X121716563Y-128834027D01*
X121852134Y-128855500D01*
X121852139Y-128855500D01*
X122067866Y-128855500D01*
X122203386Y-128834035D01*
X122280926Y-128821754D01*
X122486089Y-128755092D01*
X122678299Y-128657157D01*
X122852821Y-128530359D01*
X122995186Y-128387993D01*
X123056505Y-128354511D01*
X123126197Y-128359495D01*
X123182131Y-128401366D01*
X123195248Y-128423277D01*
X123195640Y-128424118D01*
X123287684Y-128573345D01*
X123411654Y-128697315D01*
X123560875Y-128789356D01*
X123560880Y-128789358D01*
X123727302Y-128844505D01*
X123727309Y-128844506D01*
X123830019Y-128854999D01*
X124249999Y-128854999D01*
X124250000Y-128854998D01*
X124250000Y-127802709D01*
X124270339Y-127814452D01*
X124421667Y-127855000D01*
X124578333Y-127855000D01*
X124729661Y-127814452D01*
X124750000Y-127802709D01*
X124750000Y-128854999D01*
X125169972Y-128854999D01*
X125169986Y-128854998D01*
X125272697Y-128844505D01*
X125439119Y-128789358D01*
X125439124Y-128789356D01*
X125458937Y-128777135D01*
X133324500Y-128777135D01*
X133324500Y-130222870D01*
X133324501Y-130222876D01*
X133330908Y-130282483D01*
X133381202Y-130417328D01*
X133381206Y-130417335D01*
X133467452Y-130532544D01*
X133467455Y-130532547D01*
X133582664Y-130618793D01*
X133582671Y-130618797D01*
X133717517Y-130669091D01*
X133717516Y-130669091D01*
X133724444Y-130669835D01*
X133777127Y-130675500D01*
X135222872Y-130675499D01*
X135282483Y-130669091D01*
X135417331Y-130618796D01*
X135532546Y-130532546D01*
X135618796Y-130417331D01*
X135669091Y-130282483D01*
X135675500Y-130222873D01*
X135675499Y-128777135D01*
X136824500Y-128777135D01*
X136824500Y-130222870D01*
X136824501Y-130222876D01*
X136830908Y-130282483D01*
X136881202Y-130417328D01*
X136881206Y-130417335D01*
X136967452Y-130532544D01*
X136967455Y-130532547D01*
X137082664Y-130618793D01*
X137082671Y-130618797D01*
X137217517Y-130669091D01*
X137217516Y-130669091D01*
X137224444Y-130669835D01*
X137277127Y-130675500D01*
X138722872Y-130675499D01*
X138782483Y-130669091D01*
X138917331Y-130618796D01*
X139032546Y-130532546D01*
X139118796Y-130417331D01*
X139169091Y-130282483D01*
X139175500Y-130222873D01*
X139175499Y-128777135D01*
X140324500Y-128777135D01*
X140324500Y-130222870D01*
X140324501Y-130222876D01*
X140330908Y-130282483D01*
X140381202Y-130417328D01*
X140381206Y-130417335D01*
X140467452Y-130532544D01*
X140467455Y-130532547D01*
X140582664Y-130618793D01*
X140582671Y-130618797D01*
X140717517Y-130669091D01*
X140717516Y-130669091D01*
X140724444Y-130669835D01*
X140777127Y-130675500D01*
X142222872Y-130675499D01*
X142282483Y-130669091D01*
X142417331Y-130618796D01*
X142532546Y-130532546D01*
X142618796Y-130417331D01*
X142669091Y-130282483D01*
X142675500Y-130222873D01*
X142675499Y-128777135D01*
X143824500Y-128777135D01*
X143824500Y-130222870D01*
X143824501Y-130222876D01*
X143830908Y-130282483D01*
X143881202Y-130417328D01*
X143881206Y-130417335D01*
X143967452Y-130532544D01*
X143967455Y-130532547D01*
X144082664Y-130618793D01*
X144082671Y-130618797D01*
X144217517Y-130669091D01*
X144217516Y-130669091D01*
X144224444Y-130669835D01*
X144277127Y-130675500D01*
X145722872Y-130675499D01*
X145782483Y-130669091D01*
X145917331Y-130618796D01*
X146032546Y-130532546D01*
X146118796Y-130417331D01*
X146169091Y-130282483D01*
X146175500Y-130222873D01*
X146175499Y-128777135D01*
X147324500Y-128777135D01*
X147324500Y-130222870D01*
X147324501Y-130222876D01*
X147330908Y-130282483D01*
X147381202Y-130417328D01*
X147381206Y-130417335D01*
X147467452Y-130532544D01*
X147467455Y-130532547D01*
X147582664Y-130618793D01*
X147582671Y-130618797D01*
X147717517Y-130669091D01*
X147717516Y-130669091D01*
X147724444Y-130669835D01*
X147777127Y-130675500D01*
X149222872Y-130675499D01*
X149282483Y-130669091D01*
X149417331Y-130618796D01*
X149532546Y-130532546D01*
X149618796Y-130417331D01*
X149669091Y-130282483D01*
X149675500Y-130222873D01*
X149675499Y-128777135D01*
X150824500Y-128777135D01*
X150824500Y-130222870D01*
X150824501Y-130222876D01*
X150830908Y-130282483D01*
X150881202Y-130417328D01*
X150881206Y-130417335D01*
X150967452Y-130532544D01*
X150967455Y-130532547D01*
X151082664Y-130618793D01*
X151082671Y-130618797D01*
X151217517Y-130669091D01*
X151217516Y-130669091D01*
X151224444Y-130669835D01*
X151277127Y-130675500D01*
X152722872Y-130675499D01*
X152782483Y-130669091D01*
X152917331Y-130618796D01*
X153032546Y-130532546D01*
X153118796Y-130417331D01*
X153169091Y-130282483D01*
X153175500Y-130222873D01*
X153175499Y-128777128D01*
X153169091Y-128717517D01*
X153167334Y-128712807D01*
X153118797Y-128582671D01*
X153118793Y-128582664D01*
X153032547Y-128467455D01*
X153032544Y-128467452D01*
X152917335Y-128381206D01*
X152917328Y-128381202D01*
X152782482Y-128330908D01*
X152782483Y-128330908D01*
X152722883Y-128324501D01*
X152722881Y-128324500D01*
X152722873Y-128324500D01*
X152722864Y-128324500D01*
X151277129Y-128324500D01*
X151277123Y-128324501D01*
X151217516Y-128330908D01*
X151082671Y-128381202D01*
X151082664Y-128381206D01*
X150967455Y-128467452D01*
X150967452Y-128467455D01*
X150881206Y-128582664D01*
X150881202Y-128582671D01*
X150830908Y-128717517D01*
X150826869Y-128755090D01*
X150824501Y-128777123D01*
X150824500Y-128777135D01*
X149675499Y-128777135D01*
X149675499Y-128777128D01*
X149669091Y-128717517D01*
X149667334Y-128712807D01*
X149618797Y-128582671D01*
X149618793Y-128582664D01*
X149532547Y-128467455D01*
X149532544Y-128467452D01*
X149417335Y-128381206D01*
X149417328Y-128381202D01*
X149282482Y-128330908D01*
X149282483Y-128330908D01*
X149222883Y-128324501D01*
X149222881Y-128324500D01*
X149222873Y-128324500D01*
X149222864Y-128324500D01*
X147777129Y-128324500D01*
X147777123Y-128324501D01*
X147717516Y-128330908D01*
X147582671Y-128381202D01*
X147582664Y-128381206D01*
X147467455Y-128467452D01*
X147467452Y-128467455D01*
X147381206Y-128582664D01*
X147381202Y-128582671D01*
X147330908Y-128717517D01*
X147326869Y-128755090D01*
X147324501Y-128777123D01*
X147324500Y-128777135D01*
X146175499Y-128777135D01*
X146175499Y-128777128D01*
X146169091Y-128717517D01*
X146167334Y-128712807D01*
X146118797Y-128582671D01*
X146118793Y-128582664D01*
X146032547Y-128467455D01*
X146032544Y-128467452D01*
X145917335Y-128381206D01*
X145917328Y-128381202D01*
X145782482Y-128330908D01*
X145782483Y-128330908D01*
X145722883Y-128324501D01*
X145722881Y-128324500D01*
X145722873Y-128324500D01*
X145722864Y-128324500D01*
X144277129Y-128324500D01*
X144277123Y-128324501D01*
X144217516Y-128330908D01*
X144082671Y-128381202D01*
X144082664Y-128381206D01*
X143967455Y-128467452D01*
X143967452Y-128467455D01*
X143881206Y-128582664D01*
X143881202Y-128582671D01*
X143830908Y-128717517D01*
X143826869Y-128755090D01*
X143824501Y-128777123D01*
X143824500Y-128777135D01*
X142675499Y-128777135D01*
X142675499Y-128777128D01*
X142669091Y-128717517D01*
X142667334Y-128712807D01*
X142618797Y-128582671D01*
X142618793Y-128582664D01*
X142532547Y-128467455D01*
X142532544Y-128467452D01*
X142417335Y-128381206D01*
X142417328Y-128381202D01*
X142282482Y-128330908D01*
X142282483Y-128330908D01*
X142222883Y-128324501D01*
X142222881Y-128324500D01*
X142222873Y-128324500D01*
X142222864Y-128324500D01*
X140777129Y-128324500D01*
X140777123Y-128324501D01*
X140717516Y-128330908D01*
X140582671Y-128381202D01*
X140582664Y-128381206D01*
X140467455Y-128467452D01*
X140467452Y-128467455D01*
X140381206Y-128582664D01*
X140381202Y-128582671D01*
X140330908Y-128717517D01*
X140326869Y-128755090D01*
X140324501Y-128777123D01*
X140324500Y-128777135D01*
X139175499Y-128777135D01*
X139175499Y-128777128D01*
X139169091Y-128717517D01*
X139167334Y-128712807D01*
X139118797Y-128582671D01*
X139118793Y-128582664D01*
X139032547Y-128467455D01*
X139032544Y-128467452D01*
X138917335Y-128381206D01*
X138917328Y-128381202D01*
X138782482Y-128330908D01*
X138782483Y-128330908D01*
X138722883Y-128324501D01*
X138722881Y-128324500D01*
X138722873Y-128324500D01*
X138722864Y-128324500D01*
X137277129Y-128324500D01*
X137277123Y-128324501D01*
X137217516Y-128330908D01*
X137082671Y-128381202D01*
X137082664Y-128381206D01*
X136967455Y-128467452D01*
X136967452Y-128467455D01*
X136881206Y-128582664D01*
X136881202Y-128582671D01*
X136830908Y-128717517D01*
X136826869Y-128755090D01*
X136824501Y-128777123D01*
X136824500Y-128777135D01*
X135675499Y-128777135D01*
X135675499Y-128777128D01*
X135669091Y-128717517D01*
X135667334Y-128712807D01*
X135618797Y-128582671D01*
X135618793Y-128582664D01*
X135532547Y-128467455D01*
X135532544Y-128467452D01*
X135417335Y-128381206D01*
X135417328Y-128381202D01*
X135282482Y-128330908D01*
X135282483Y-128330908D01*
X135222883Y-128324501D01*
X135222881Y-128324500D01*
X135222873Y-128324500D01*
X135222864Y-128324500D01*
X133777129Y-128324500D01*
X133777123Y-128324501D01*
X133717516Y-128330908D01*
X133582671Y-128381202D01*
X133582664Y-128381206D01*
X133467455Y-128467452D01*
X133467452Y-128467455D01*
X133381206Y-128582664D01*
X133381202Y-128582671D01*
X133330908Y-128717517D01*
X133326869Y-128755090D01*
X133324501Y-128777123D01*
X133324500Y-128777135D01*
X125458937Y-128777135D01*
X125588345Y-128697315D01*
X125712315Y-128573345D01*
X125804356Y-128424124D01*
X125804358Y-128424119D01*
X125859505Y-128257697D01*
X125859506Y-128257690D01*
X125869999Y-128154986D01*
X125870000Y-128154973D01*
X125870000Y-127510000D01*
X125042709Y-127510000D01*
X125054452Y-127489661D01*
X125095000Y-127338333D01*
X125095000Y-127181667D01*
X125054452Y-127030339D01*
X125042709Y-127010000D01*
X125869999Y-127010000D01*
X125869999Y-126365028D01*
X125869998Y-126365013D01*
X125859505Y-126262302D01*
X125804358Y-126095880D01*
X125804356Y-126095875D01*
X125712315Y-125946654D01*
X125588345Y-125822684D01*
X125439124Y-125730643D01*
X125439119Y-125730641D01*
X125272697Y-125675494D01*
X125272690Y-125675493D01*
X125169986Y-125665000D01*
X124750000Y-125665000D01*
X124750000Y-126717290D01*
X124729661Y-126705548D01*
X124578333Y-126665000D01*
X124421667Y-126665000D01*
X124270339Y-126705548D01*
X124250000Y-126717290D01*
X124250000Y-125665000D01*
X123830028Y-125665000D01*
X123830012Y-125665001D01*
X123727302Y-125675494D01*
X123560880Y-125730641D01*
X123560875Y-125730643D01*
X123411654Y-125822684D01*
X123287684Y-125946654D01*
X123195637Y-126095885D01*
X123195245Y-126096728D01*
X123194821Y-126097208D01*
X123191851Y-126102025D01*
X123191027Y-126101517D01*
X123149072Y-126149167D01*
X123081879Y-126168318D01*
X123014998Y-126148101D01*
X122995183Y-126132003D01*
X122852823Y-125989643D01*
X122852821Y-125989641D01*
X122678299Y-125862843D01*
X122486089Y-125764908D01*
X122280926Y-125698246D01*
X122280924Y-125698245D01*
X122280922Y-125698245D01*
X122067866Y-125664500D01*
X122067861Y-125664500D01*
X121852139Y-125664500D01*
X121852134Y-125664500D01*
X121639077Y-125698245D01*
X121433908Y-125764909D01*
X121241700Y-125862843D01*
X121142129Y-125935186D01*
X121067179Y-125989641D01*
X121067177Y-125989643D01*
X121067176Y-125989643D01*
X120914643Y-126142176D01*
X120914643Y-126142177D01*
X120914641Y-126142179D01*
X120909564Y-126149167D01*
X120787843Y-126316700D01*
X120689909Y-126508908D01*
X120623245Y-126714077D01*
X120589500Y-126927133D01*
X95000000Y-126927133D01*
X95000000Y-122104983D01*
X131089500Y-122104983D01*
X131089500Y-123895001D01*
X131089501Y-123895018D01*
X131100000Y-123997796D01*
X131100001Y-123997799D01*
X131137774Y-124111788D01*
X131155186Y-124164334D01*
X131247288Y-124313656D01*
X131371344Y-124437712D01*
X131520666Y-124529814D01*
X131687203Y-124584999D01*
X131789991Y-124595500D01*
X133130008Y-124595499D01*
X133232797Y-124584999D01*
X133399334Y-124529814D01*
X133548656Y-124437712D01*
X133672712Y-124313656D01*
X133764814Y-124164334D01*
X133764817Y-124164323D01*
X133765353Y-124163177D01*
X133765934Y-124162516D01*
X133768605Y-124158187D01*
X133769344Y-124158643D01*
X133811521Y-124110734D01*
X133878713Y-124091577D01*
X133945596Y-124111788D01*
X133965420Y-124127892D01*
X134107502Y-124269974D01*
X134281963Y-124396728D01*
X134474098Y-124494627D01*
X134679190Y-124561266D01*
X134750000Y-124572481D01*
X134750000Y-123542709D01*
X134770339Y-123554452D01*
X134921667Y-123595000D01*
X135078333Y-123595000D01*
X135229661Y-123554452D01*
X135250000Y-123542709D01*
X135250000Y-124572480D01*
X135320809Y-124561266D01*
X135525901Y-124494627D01*
X135718036Y-124396728D01*
X135892496Y-124269974D01*
X135892497Y-124269974D01*
X136044974Y-124117497D01*
X136044974Y-124117496D01*
X136171728Y-123943036D01*
X136269627Y-123750901D01*
X136336265Y-123545809D01*
X136370000Y-123332820D01*
X136370000Y-123250000D01*
X135542709Y-123250000D01*
X135554452Y-123229661D01*
X135595000Y-123078333D01*
X135595000Y-122921667D01*
X135554452Y-122770339D01*
X135542709Y-122750000D01*
X136370000Y-122750000D01*
X136370000Y-122667179D01*
X136363664Y-122627179D01*
X140590000Y-122627179D01*
X140590000Y-122710000D01*
X141417291Y-122710000D01*
X141405548Y-122730339D01*
X141365000Y-122881667D01*
X141365000Y-123038333D01*
X141405548Y-123189661D01*
X141417291Y-123210000D01*
X140590000Y-123210000D01*
X140590000Y-123292820D01*
X140623734Y-123505809D01*
X140690372Y-123710901D01*
X140788271Y-123903036D01*
X140915025Y-124077496D01*
X140915025Y-124077497D01*
X141067502Y-124229974D01*
X141241963Y-124356728D01*
X141434098Y-124454627D01*
X141639190Y-124521266D01*
X141710000Y-124532481D01*
X141710000Y-123502709D01*
X141730339Y-123514452D01*
X141881667Y-123555000D01*
X142038333Y-123555000D01*
X142189661Y-123514452D01*
X142210000Y-123502709D01*
X142210000Y-124532480D01*
X142280809Y-124521266D01*
X142485901Y-124454627D01*
X142678036Y-124356728D01*
X142852493Y-124229977D01*
X142994578Y-124087892D01*
X143055901Y-124054407D01*
X143125593Y-124059391D01*
X143181527Y-124101262D01*
X143194640Y-124123165D01*
X143195181Y-124124325D01*
X143195185Y-124124331D01*
X143195186Y-124124334D01*
X143287288Y-124273656D01*
X143411344Y-124397712D01*
X143560666Y-124489814D01*
X143727203Y-124544999D01*
X143829991Y-124555500D01*
X145170008Y-124555499D01*
X145272797Y-124544999D01*
X145439334Y-124489814D01*
X145588656Y-124397712D01*
X145712712Y-124273656D01*
X145804814Y-124124334D01*
X145859999Y-123957797D01*
X145870500Y-123855009D01*
X145870499Y-122064992D01*
X145859999Y-121962203D01*
X145804814Y-121795666D01*
X145712712Y-121646344D01*
X145588656Y-121522288D01*
X145439334Y-121430186D01*
X145272797Y-121375001D01*
X145272795Y-121375000D01*
X145170010Y-121364500D01*
X143829998Y-121364500D01*
X143829981Y-121364501D01*
X143727203Y-121375000D01*
X143727200Y-121375001D01*
X143560668Y-121430185D01*
X143560663Y-121430187D01*
X143411342Y-121522289D01*
X143287289Y-121646342D01*
X143195182Y-121795672D01*
X143194638Y-121796840D01*
X143194051Y-121797505D01*
X143191395Y-121801813D01*
X143190658Y-121801358D01*
X143148461Y-121849275D01*
X143081266Y-121868422D01*
X143014387Y-121848201D01*
X142994579Y-121832107D01*
X142852497Y-121690025D01*
X142678036Y-121563271D01*
X142485899Y-121465372D01*
X142280805Y-121398733D01*
X142210000Y-121387518D01*
X142210000Y-122417290D01*
X142189661Y-122405548D01*
X142038333Y-122365000D01*
X141881667Y-122365000D01*
X141730339Y-122405548D01*
X141710000Y-122417290D01*
X141710000Y-121387518D01*
X141709999Y-121387518D01*
X141639194Y-121398733D01*
X141434100Y-121465372D01*
X141241963Y-121563271D01*
X141067503Y-121690025D01*
X141067502Y-121690025D01*
X140915025Y-121842502D01*
X140915025Y-121842503D01*
X140788271Y-122016963D01*
X140690372Y-122209098D01*
X140623734Y-122414190D01*
X140590000Y-122627179D01*
X136363664Y-122627179D01*
X136336265Y-122454190D01*
X136269627Y-122249098D01*
X136171728Y-122056963D01*
X136044974Y-121882503D01*
X136044974Y-121882502D01*
X135892497Y-121730025D01*
X135718036Y-121603271D01*
X135525899Y-121505372D01*
X135320805Y-121438733D01*
X135250000Y-121427518D01*
X135250000Y-122457290D01*
X135229661Y-122445548D01*
X135078333Y-122405000D01*
X134921667Y-122405000D01*
X134770339Y-122445548D01*
X134750000Y-122457290D01*
X134750000Y-121427518D01*
X134749999Y-121427518D01*
X134679194Y-121438733D01*
X134474100Y-121505372D01*
X134281963Y-121603271D01*
X134107506Y-121730022D01*
X133965420Y-121872108D01*
X133904097Y-121905592D01*
X133834405Y-121900608D01*
X133778472Y-121858736D01*
X133765356Y-121836828D01*
X133764816Y-121835670D01*
X133764812Y-121835663D01*
X133672712Y-121686344D01*
X133548656Y-121562288D01*
X133399334Y-121470186D01*
X133232797Y-121415001D01*
X133232795Y-121415000D01*
X133130010Y-121404500D01*
X131789998Y-121404500D01*
X131789981Y-121404501D01*
X131687203Y-121415000D01*
X131687200Y-121415001D01*
X131520668Y-121470185D01*
X131520663Y-121470187D01*
X131371342Y-121562289D01*
X131247289Y-121686342D01*
X131155187Y-121835663D01*
X131155185Y-121835668D01*
X131152920Y-121842503D01*
X131100001Y-122002203D01*
X131100001Y-122002204D01*
X131100000Y-122002204D01*
X131089500Y-122104983D01*
X95000000Y-122104983D01*
X95000000Y-114499996D01*
X134194435Y-114499996D01*
X134194435Y-114500003D01*
X134214630Y-114679249D01*
X134214631Y-114679254D01*
X134274211Y-114849523D01*
X134295069Y-114882718D01*
X134370184Y-115002262D01*
X134497738Y-115129816D01*
X134524300Y-115146506D01*
X134609417Y-115199989D01*
X134650478Y-115225789D01*
X134820745Y-115285368D01*
X134820750Y-115285369D01*
X134999996Y-115305565D01*
X135000000Y-115305565D01*
X135000004Y-115305565D01*
X135179249Y-115285369D01*
X135179252Y-115285368D01*
X135179255Y-115285368D01*
X135349522Y-115225789D01*
X135475700Y-115146505D01*
X135541672Y-115127500D01*
X136108539Y-115127500D01*
X136175578Y-115147185D01*
X136221333Y-115199989D01*
X136225581Y-115210546D01*
X136274210Y-115349521D01*
X136274212Y-115349524D01*
X136370184Y-115502262D01*
X136497738Y-115629816D01*
X136588080Y-115686582D01*
X136609417Y-115699989D01*
X136650478Y-115725789D01*
X136723956Y-115751500D01*
X136820745Y-115785368D01*
X136820750Y-115785369D01*
X136999996Y-115805565D01*
X137000000Y-115805565D01*
X137000004Y-115805565D01*
X137179249Y-115785369D01*
X137179252Y-115785368D01*
X137179255Y-115785368D01*
X137349522Y-115725789D01*
X137475700Y-115646505D01*
X137541672Y-115627500D01*
X144958328Y-115627500D01*
X145024300Y-115646506D01*
X145109417Y-115699989D01*
X145150478Y-115725789D01*
X145223956Y-115751500D01*
X145320745Y-115785368D01*
X145320750Y-115785369D01*
X145499996Y-115805565D01*
X145500000Y-115805565D01*
X145500004Y-115805565D01*
X145679249Y-115785369D01*
X145679252Y-115785368D01*
X145679255Y-115785368D01*
X145849522Y-115725789D01*
X145975700Y-115646505D01*
X146041672Y-115627500D01*
X152188719Y-115627500D01*
X152255758Y-115647185D01*
X152276400Y-115663819D01*
X152674146Y-116061565D01*
X152707631Y-116122888D01*
X152709685Y-116135361D01*
X152714630Y-116179249D01*
X152774210Y-116349521D01*
X152774211Y-116349522D01*
X152870184Y-116502262D01*
X152997738Y-116629816D01*
X153150478Y-116725789D01*
X153320745Y-116785368D01*
X153320750Y-116785369D01*
X153459383Y-116800989D01*
X153523797Y-116828055D01*
X153563352Y-116885650D01*
X153569500Y-116924209D01*
X153569500Y-121240500D01*
X153549815Y-121307539D01*
X153497011Y-121353294D01*
X153445500Y-121364500D01*
X152329998Y-121364500D01*
X152329981Y-121364501D01*
X152227203Y-121375000D01*
X152227200Y-121375001D01*
X152060668Y-121430185D01*
X152060663Y-121430187D01*
X151911342Y-121522289D01*
X151787289Y-121646342D01*
X151695182Y-121795672D01*
X151694638Y-121796840D01*
X151694051Y-121797505D01*
X151691395Y-121801813D01*
X151690658Y-121801358D01*
X151648461Y-121849275D01*
X151581266Y-121868422D01*
X151514387Y-121848201D01*
X151494579Y-121832107D01*
X151352497Y-121690025D01*
X151178036Y-121563271D01*
X150985899Y-121465372D01*
X150780805Y-121398733D01*
X150710000Y-121387518D01*
X150710000Y-122417290D01*
X150689661Y-122405548D01*
X150538333Y-122365000D01*
X150381667Y-122365000D01*
X150230339Y-122405548D01*
X150210000Y-122417290D01*
X150210000Y-121387518D01*
X150209999Y-121387518D01*
X150139194Y-121398733D01*
X149934100Y-121465372D01*
X149741963Y-121563271D01*
X149567503Y-121690025D01*
X149567502Y-121690025D01*
X149415025Y-121842502D01*
X149415025Y-121842503D01*
X149288271Y-122016963D01*
X149190372Y-122209098D01*
X149123734Y-122414190D01*
X149090000Y-122627179D01*
X149090000Y-122710000D01*
X149917291Y-122710000D01*
X149905548Y-122730339D01*
X149865000Y-122881667D01*
X149865000Y-123038333D01*
X149905548Y-123189661D01*
X149917291Y-123210000D01*
X149090000Y-123210000D01*
X149090000Y-123292820D01*
X149123734Y-123505809D01*
X149190372Y-123710901D01*
X149288271Y-123903036D01*
X149415025Y-124077496D01*
X149415025Y-124077497D01*
X149567502Y-124229974D01*
X149741963Y-124356728D01*
X149934098Y-124454627D01*
X150139190Y-124521266D01*
X150210000Y-124532481D01*
X150210000Y-123502709D01*
X150230339Y-123514452D01*
X150381667Y-123555000D01*
X150538333Y-123555000D01*
X150689661Y-123514452D01*
X150710000Y-123502709D01*
X150710000Y-124532480D01*
X150780809Y-124521266D01*
X150985901Y-124454627D01*
X151178036Y-124356728D01*
X151352493Y-124229977D01*
X151494578Y-124087892D01*
X151555901Y-124054407D01*
X151625593Y-124059391D01*
X151681527Y-124101262D01*
X151694640Y-124123165D01*
X151695181Y-124124325D01*
X151695185Y-124124331D01*
X151695186Y-124124334D01*
X151787288Y-124273656D01*
X151911344Y-124397712D01*
X152060666Y-124489814D01*
X152227203Y-124544999D01*
X152329991Y-124555500D01*
X153445500Y-124555499D01*
X153512539Y-124575184D01*
X153558294Y-124627987D01*
X153569500Y-124679499D01*
X153569500Y-126491717D01*
X153549815Y-126558756D01*
X153533181Y-126579399D01*
X153438431Y-126674148D01*
X153377107Y-126707632D01*
X153364636Y-126709686D01*
X153331761Y-126713390D01*
X153320745Y-126714632D01*
X153276610Y-126730075D01*
X153150478Y-126774210D01*
X152997737Y-126870184D01*
X152870184Y-126997737D01*
X152774211Y-127150476D01*
X152714631Y-127320745D01*
X152714630Y-127320750D01*
X152694435Y-127499996D01*
X152694435Y-127500003D01*
X152714630Y-127679249D01*
X152714631Y-127679254D01*
X152774211Y-127849523D01*
X152870184Y-128002262D01*
X152997738Y-128129816D01*
X153037775Y-128154973D01*
X153150474Y-128225787D01*
X153150478Y-128225789D01*
X153241646Y-128257690D01*
X153320745Y-128285368D01*
X153320750Y-128285369D01*
X153499996Y-128305565D01*
X153500000Y-128305565D01*
X153500004Y-128305565D01*
X153679249Y-128285369D01*
X153679252Y-128285368D01*
X153679255Y-128285368D01*
X153849522Y-128225789D01*
X153849522Y-128225788D01*
X153856095Y-128223489D01*
X153856899Y-128225787D01*
X153914634Y-128216278D01*
X153978770Y-128243997D01*
X154017738Y-128301991D01*
X154023500Y-128339351D01*
X154023500Y-128712807D01*
X154047612Y-128834027D01*
X154047614Y-128834035D01*
X154081062Y-128914785D01*
X154094915Y-128948229D01*
X154094920Y-128948239D01*
X154163587Y-129051006D01*
X154163588Y-129051007D01*
X154163589Y-129051008D01*
X154288182Y-129175601D01*
X154321666Y-129236922D01*
X154324500Y-129263281D01*
X154324500Y-130222870D01*
X154324501Y-130222876D01*
X154330908Y-130282483D01*
X154381202Y-130417328D01*
X154381206Y-130417335D01*
X154467452Y-130532544D01*
X154467455Y-130532547D01*
X154582664Y-130618793D01*
X154582671Y-130618797D01*
X154717517Y-130669091D01*
X154717516Y-130669091D01*
X154724444Y-130669835D01*
X154777127Y-130675500D01*
X156222872Y-130675499D01*
X156282483Y-130669091D01*
X156417331Y-130618796D01*
X156532546Y-130532546D01*
X156618796Y-130417331D01*
X156669091Y-130282483D01*
X156675500Y-130222873D01*
X156675499Y-128777128D01*
X156669091Y-128717517D01*
X156667334Y-128712807D01*
X156618797Y-128582671D01*
X156618793Y-128582664D01*
X156532547Y-128467455D01*
X156532544Y-128467452D01*
X156417335Y-128381206D01*
X156417328Y-128381202D01*
X156282482Y-128330908D01*
X156282483Y-128330908D01*
X156222883Y-128324501D01*
X156222881Y-128324500D01*
X156222873Y-128324500D01*
X156222865Y-128324500D01*
X155402500Y-128324500D01*
X155335461Y-128304815D01*
X155289706Y-128252011D01*
X155278500Y-128200500D01*
X155278500Y-106965281D01*
X155298185Y-106898242D01*
X155350989Y-106852487D01*
X155420147Y-106842543D01*
X155483703Y-106871568D01*
X155490181Y-106877600D01*
X155963181Y-107350600D01*
X155996666Y-107411923D01*
X155999500Y-107438281D01*
X155999500Y-127188807D01*
X156023612Y-127310028D01*
X156023615Y-127310038D01*
X156038601Y-127346215D01*
X156038602Y-127346218D01*
X156070915Y-127424230D01*
X156070917Y-127424233D01*
X156121542Y-127499999D01*
X156121543Y-127500001D01*
X156139588Y-127527007D01*
X156139593Y-127527013D01*
X157788181Y-129175600D01*
X157821666Y-129236923D01*
X157824500Y-129263281D01*
X157824500Y-130222870D01*
X157824501Y-130222876D01*
X157830908Y-130282483D01*
X157881202Y-130417328D01*
X157881206Y-130417335D01*
X157967452Y-130532544D01*
X157967455Y-130532547D01*
X158082664Y-130618793D01*
X158082671Y-130618797D01*
X158217517Y-130669091D01*
X158217516Y-130669091D01*
X158224444Y-130669835D01*
X158277127Y-130675500D01*
X159722872Y-130675499D01*
X159782483Y-130669091D01*
X159917331Y-130618796D01*
X160032546Y-130532546D01*
X160118796Y-130417331D01*
X160169091Y-130282483D01*
X160175500Y-130222873D01*
X160175499Y-128777155D01*
X161325000Y-128777155D01*
X161325000Y-129250000D01*
X162184314Y-129250000D01*
X162179920Y-129254394D01*
X162127259Y-129345606D01*
X162100000Y-129447339D01*
X162100000Y-129552661D01*
X162127259Y-129654394D01*
X162179920Y-129745606D01*
X162184314Y-129750000D01*
X161325000Y-129750000D01*
X161325000Y-130222844D01*
X161331401Y-130282372D01*
X161331403Y-130282379D01*
X161381645Y-130417086D01*
X161381649Y-130417093D01*
X161467809Y-130532187D01*
X161467812Y-130532190D01*
X161582906Y-130618350D01*
X161582913Y-130618354D01*
X161717620Y-130668596D01*
X161717627Y-130668598D01*
X161777155Y-130674999D01*
X161777172Y-130675000D01*
X162250000Y-130675000D01*
X162250000Y-129815686D01*
X162254394Y-129820080D01*
X162345606Y-129872741D01*
X162447339Y-129900000D01*
X162552661Y-129900000D01*
X162654394Y-129872741D01*
X162745606Y-129820080D01*
X162750000Y-129815686D01*
X162750000Y-130675000D01*
X163222828Y-130675000D01*
X163222844Y-130674999D01*
X163282372Y-130668598D01*
X163282379Y-130668596D01*
X163417086Y-130618354D01*
X163417093Y-130618350D01*
X163532187Y-130532190D01*
X163532190Y-130532187D01*
X163618350Y-130417093D01*
X163618354Y-130417086D01*
X163668596Y-130282379D01*
X163668598Y-130282372D01*
X163674999Y-130222844D01*
X163675000Y-130222827D01*
X163675000Y-129750000D01*
X162815686Y-129750000D01*
X162820080Y-129745606D01*
X162872741Y-129654394D01*
X162900000Y-129552661D01*
X162900000Y-129447339D01*
X162872741Y-129345606D01*
X162820080Y-129254394D01*
X162815686Y-129250000D01*
X163675000Y-129250000D01*
X163675000Y-128777172D01*
X163674999Y-128777155D01*
X164825000Y-128777155D01*
X164825000Y-129250000D01*
X165684314Y-129250000D01*
X165679920Y-129254394D01*
X165627259Y-129345606D01*
X165600000Y-129447339D01*
X165600000Y-129552661D01*
X165627259Y-129654394D01*
X165679920Y-129745606D01*
X165684314Y-129750000D01*
X164825000Y-129750000D01*
X164825000Y-130222844D01*
X164831401Y-130282372D01*
X164831403Y-130282379D01*
X164881645Y-130417086D01*
X164881649Y-130417093D01*
X164967809Y-130532187D01*
X164967812Y-130532190D01*
X165082906Y-130618350D01*
X165082913Y-130618354D01*
X165217620Y-130668596D01*
X165217627Y-130668598D01*
X165277155Y-130674999D01*
X165277172Y-130675000D01*
X165750000Y-130675000D01*
X165750000Y-129815686D01*
X165754394Y-129820080D01*
X165845606Y-129872741D01*
X165947339Y-129900000D01*
X166052661Y-129900000D01*
X166154394Y-129872741D01*
X166245606Y-129820080D01*
X166250000Y-129815686D01*
X166250000Y-130675000D01*
X166722828Y-130675000D01*
X166722844Y-130674999D01*
X166782372Y-130668598D01*
X166782379Y-130668596D01*
X166917086Y-130618354D01*
X166917093Y-130618350D01*
X167032187Y-130532190D01*
X167032190Y-130532187D01*
X167118350Y-130417093D01*
X167118354Y-130417086D01*
X167168596Y-130282379D01*
X167168598Y-130282372D01*
X167174999Y-130222844D01*
X167175000Y-130222827D01*
X167175000Y-129750000D01*
X166315686Y-129750000D01*
X166320080Y-129745606D01*
X166372741Y-129654394D01*
X166400000Y-129552661D01*
X166400000Y-129447339D01*
X166372741Y-129345606D01*
X166320080Y-129254394D01*
X166315686Y-129250000D01*
X167175000Y-129250000D01*
X167175000Y-128777172D01*
X167174999Y-128777155D01*
X167168598Y-128717627D01*
X167168596Y-128717620D01*
X167118354Y-128582913D01*
X167118350Y-128582906D01*
X167032190Y-128467812D01*
X167032187Y-128467809D01*
X166917093Y-128381649D01*
X166917086Y-128381645D01*
X166782379Y-128331403D01*
X166782372Y-128331401D01*
X166722844Y-128325000D01*
X166250000Y-128325000D01*
X166250000Y-129184314D01*
X166245606Y-129179920D01*
X166154394Y-129127259D01*
X166052661Y-129100000D01*
X165947339Y-129100000D01*
X165845606Y-129127259D01*
X165754394Y-129179920D01*
X165750000Y-129184314D01*
X165750000Y-128325000D01*
X165277155Y-128325000D01*
X165217627Y-128331401D01*
X165217620Y-128331403D01*
X165082913Y-128381645D01*
X165082906Y-128381649D01*
X164967812Y-128467809D01*
X164967809Y-128467812D01*
X164881649Y-128582906D01*
X164881645Y-128582913D01*
X164831403Y-128717620D01*
X164831401Y-128717627D01*
X164825000Y-128777155D01*
X163674999Y-128777155D01*
X163668598Y-128717627D01*
X163668596Y-128717620D01*
X163618354Y-128582913D01*
X163618350Y-128582906D01*
X163532190Y-128467812D01*
X163532187Y-128467809D01*
X163417093Y-128381649D01*
X163417086Y-128381645D01*
X163282379Y-128331403D01*
X163282372Y-128331401D01*
X163222844Y-128325000D01*
X162750000Y-128325000D01*
X162750000Y-129184314D01*
X162745606Y-129179920D01*
X162654394Y-129127259D01*
X162552661Y-129100000D01*
X162447339Y-129100000D01*
X162345606Y-129127259D01*
X162254394Y-129179920D01*
X162250000Y-129184314D01*
X162250000Y-128325000D01*
X161777155Y-128325000D01*
X161717627Y-128331401D01*
X161717620Y-128331403D01*
X161582913Y-128381645D01*
X161582906Y-128381649D01*
X161467812Y-128467809D01*
X161467809Y-128467812D01*
X161381649Y-128582906D01*
X161381645Y-128582913D01*
X161331403Y-128717620D01*
X161331401Y-128717627D01*
X161325000Y-128777155D01*
X160175499Y-128777155D01*
X160175499Y-128777128D01*
X160169091Y-128717517D01*
X160167334Y-128712807D01*
X160118797Y-128582671D01*
X160118793Y-128582664D01*
X160032547Y-128467455D01*
X160032544Y-128467452D01*
X159917335Y-128381206D01*
X159917328Y-128381202D01*
X159782482Y-128330908D01*
X159782483Y-128330908D01*
X159722883Y-128324501D01*
X159722881Y-128324500D01*
X159722873Y-128324500D01*
X159722865Y-128324500D01*
X158763281Y-128324500D01*
X158696242Y-128304815D01*
X158675600Y-128288181D01*
X157290819Y-126903400D01*
X157257334Y-126842077D01*
X157254500Y-126815719D01*
X157254500Y-125059983D01*
X186404500Y-125059983D01*
X186404500Y-126400001D01*
X186404501Y-126400018D01*
X186415000Y-126502796D01*
X186415001Y-126502799D01*
X186470185Y-126669331D01*
X186470187Y-126669336D01*
X186498126Y-126714632D01*
X186562288Y-126818656D01*
X186686344Y-126942712D01*
X186835666Y-127034814D01*
X186835667Y-127034814D01*
X186835670Y-127034816D01*
X186836828Y-127035356D01*
X186837488Y-127035937D01*
X186841813Y-127038605D01*
X186841357Y-127039343D01*
X186889268Y-127081527D01*
X186908422Y-127148720D01*
X186888208Y-127215601D01*
X186872108Y-127235420D01*
X186730022Y-127377506D01*
X186603271Y-127551963D01*
X186505372Y-127744098D01*
X186438733Y-127949190D01*
X186427519Y-128020000D01*
X187457291Y-128020000D01*
X187445548Y-128040339D01*
X187405000Y-128191667D01*
X187405000Y-128348333D01*
X187445548Y-128499661D01*
X187457291Y-128520000D01*
X186427519Y-128520000D01*
X186438733Y-128590809D01*
X186505372Y-128795901D01*
X186603271Y-128988036D01*
X186730025Y-129162496D01*
X186730025Y-129162497D01*
X186882502Y-129314974D01*
X187056963Y-129441728D01*
X187249098Y-129539627D01*
X187454190Y-129606265D01*
X187667180Y-129640000D01*
X187750000Y-129640000D01*
X187750000Y-128812709D01*
X187770339Y-128824452D01*
X187921667Y-128865000D01*
X188078333Y-128865000D01*
X188229661Y-128824452D01*
X188250000Y-128812709D01*
X188250000Y-129640000D01*
X188332820Y-129640000D01*
X188545809Y-129606265D01*
X188750901Y-129539627D01*
X188943036Y-129441728D01*
X189117496Y-129314974D01*
X189117497Y-129314974D01*
X189269974Y-129162497D01*
X189269974Y-129162496D01*
X189396728Y-128988036D01*
X189494627Y-128795901D01*
X189561266Y-128590809D01*
X189572481Y-128520000D01*
X188542709Y-128520000D01*
X188554452Y-128499661D01*
X188595000Y-128348333D01*
X188595000Y-128191667D01*
X188554452Y-128040339D01*
X188542709Y-128020000D01*
X189572481Y-128020000D01*
X189561266Y-127949190D01*
X189494627Y-127744098D01*
X189396728Y-127551963D01*
X189269974Y-127377503D01*
X189269974Y-127377502D01*
X189127892Y-127235420D01*
X189094407Y-127174097D01*
X189099391Y-127104405D01*
X189141263Y-127048472D01*
X189163177Y-127035353D01*
X189164323Y-127034817D01*
X189164334Y-127034814D01*
X189313656Y-126942712D01*
X189437712Y-126818656D01*
X189529814Y-126669334D01*
X189584999Y-126502797D01*
X189595500Y-126400009D01*
X189595499Y-125059992D01*
X189584999Y-124957203D01*
X189529814Y-124790666D01*
X189437712Y-124641344D01*
X189313656Y-124517288D01*
X189164334Y-124425186D01*
X188997797Y-124370001D01*
X188997795Y-124370000D01*
X188895010Y-124359500D01*
X187104998Y-124359500D01*
X187104981Y-124359501D01*
X187002203Y-124370000D01*
X187002200Y-124370001D01*
X186835668Y-124425185D01*
X186835663Y-124425187D01*
X186686342Y-124517289D01*
X186562289Y-124641342D01*
X186470187Y-124790663D01*
X186470186Y-124790666D01*
X186415001Y-124957203D01*
X186415001Y-124957204D01*
X186415000Y-124957204D01*
X186404500Y-125059983D01*
X157254500Y-125059983D01*
X157254500Y-122627179D01*
X157590000Y-122627179D01*
X157590000Y-122710000D01*
X158417291Y-122710000D01*
X158405548Y-122730339D01*
X158365000Y-122881667D01*
X158365000Y-123038333D01*
X158405548Y-123189661D01*
X158417291Y-123210000D01*
X157590000Y-123210000D01*
X157590000Y-123292820D01*
X157623734Y-123505809D01*
X157690372Y-123710901D01*
X157788271Y-123903036D01*
X157915025Y-124077496D01*
X157915025Y-124077497D01*
X158067502Y-124229974D01*
X158241963Y-124356728D01*
X158434098Y-124454627D01*
X158639190Y-124521266D01*
X158710000Y-124532481D01*
X158710000Y-123502709D01*
X158730339Y-123514452D01*
X158881667Y-123555000D01*
X159038333Y-123555000D01*
X159189661Y-123514452D01*
X159210000Y-123502709D01*
X159210000Y-124532480D01*
X159280809Y-124521266D01*
X159485901Y-124454627D01*
X159678036Y-124356728D01*
X159852493Y-124229977D01*
X159994578Y-124087892D01*
X160055901Y-124054407D01*
X160125593Y-124059391D01*
X160181527Y-124101262D01*
X160194640Y-124123165D01*
X160195181Y-124124325D01*
X160195185Y-124124331D01*
X160195186Y-124124334D01*
X160287288Y-124273656D01*
X160411344Y-124397712D01*
X160560666Y-124489814D01*
X160727203Y-124544999D01*
X160829991Y-124555500D01*
X162170008Y-124555499D01*
X162272797Y-124544999D01*
X162439334Y-124489814D01*
X162588656Y-124397712D01*
X162712712Y-124273656D01*
X162804814Y-124124334D01*
X162859999Y-123957797D01*
X162870500Y-123855009D01*
X162870499Y-122627179D01*
X166130000Y-122627179D01*
X166130000Y-122710000D01*
X166957291Y-122710000D01*
X166945548Y-122730339D01*
X166905000Y-122881667D01*
X166905000Y-123038333D01*
X166945548Y-123189661D01*
X166957291Y-123210000D01*
X166130000Y-123210000D01*
X166130000Y-123292820D01*
X166163734Y-123505809D01*
X166230372Y-123710901D01*
X166328271Y-123903036D01*
X166455025Y-124077496D01*
X166455025Y-124077497D01*
X166607502Y-124229974D01*
X166781963Y-124356728D01*
X166974098Y-124454627D01*
X167179190Y-124521266D01*
X167250000Y-124532481D01*
X167250000Y-123502709D01*
X167270339Y-123514452D01*
X167421667Y-123555000D01*
X167578333Y-123555000D01*
X167729661Y-123514452D01*
X167750000Y-123502709D01*
X167750000Y-124532481D01*
X167820809Y-124521266D01*
X168025901Y-124454627D01*
X168218036Y-124356728D01*
X168392493Y-124229977D01*
X168534578Y-124087892D01*
X168595901Y-124054407D01*
X168665593Y-124059391D01*
X168721527Y-124101262D01*
X168734640Y-124123165D01*
X168735181Y-124124325D01*
X168735185Y-124124331D01*
X168735186Y-124124334D01*
X168827288Y-124273656D01*
X168951344Y-124397712D01*
X169100666Y-124489814D01*
X169267203Y-124544999D01*
X169369991Y-124555500D01*
X170710008Y-124555499D01*
X170812797Y-124544999D01*
X170979334Y-124489814D01*
X171128656Y-124397712D01*
X171252712Y-124273656D01*
X171344814Y-124124334D01*
X171399999Y-123957797D01*
X171410500Y-123855009D01*
X171410499Y-122064992D01*
X171399999Y-121962203D01*
X171344814Y-121795666D01*
X171252712Y-121646344D01*
X171128656Y-121522288D01*
X170979334Y-121430186D01*
X170812797Y-121375001D01*
X170812795Y-121375000D01*
X170710010Y-121364500D01*
X169369998Y-121364500D01*
X169369981Y-121364501D01*
X169267203Y-121375000D01*
X169267200Y-121375001D01*
X169100668Y-121430185D01*
X169100663Y-121430187D01*
X168951342Y-121522289D01*
X168827289Y-121646342D01*
X168735182Y-121795672D01*
X168734638Y-121796840D01*
X168734051Y-121797505D01*
X168731395Y-121801813D01*
X168730658Y-121801358D01*
X168688461Y-121849275D01*
X168621266Y-121868422D01*
X168554387Y-121848201D01*
X168534579Y-121832107D01*
X168392497Y-121690025D01*
X168218036Y-121563271D01*
X168025899Y-121465372D01*
X167820805Y-121398733D01*
X167750000Y-121387518D01*
X167750000Y-122417290D01*
X167729661Y-122405548D01*
X167578333Y-122365000D01*
X167421667Y-122365000D01*
X167270339Y-122405548D01*
X167250000Y-122417290D01*
X167250000Y-121387518D01*
X167249999Y-121387518D01*
X167179194Y-121398733D01*
X166974100Y-121465372D01*
X166781963Y-121563271D01*
X166607503Y-121690025D01*
X166607502Y-121690025D01*
X166455025Y-121842502D01*
X166455025Y-121842503D01*
X166328271Y-122016963D01*
X166230372Y-122209098D01*
X166163734Y-122414190D01*
X166130000Y-122627179D01*
X162870499Y-122627179D01*
X162870499Y-122064992D01*
X162859999Y-121962203D01*
X162804814Y-121795666D01*
X162712712Y-121646344D01*
X162588656Y-121522288D01*
X162439334Y-121430186D01*
X162272797Y-121375001D01*
X162272795Y-121375000D01*
X162170010Y-121364500D01*
X160829998Y-121364500D01*
X160829981Y-121364501D01*
X160727203Y-121375000D01*
X160727200Y-121375001D01*
X160560668Y-121430185D01*
X160560663Y-121430187D01*
X160411342Y-121522289D01*
X160287289Y-121646342D01*
X160195182Y-121795672D01*
X160194638Y-121796840D01*
X160194051Y-121797505D01*
X160191395Y-121801813D01*
X160190658Y-121801358D01*
X160148461Y-121849275D01*
X160081266Y-121868422D01*
X160014387Y-121848201D01*
X159994579Y-121832107D01*
X159852497Y-121690025D01*
X159678036Y-121563271D01*
X159485899Y-121465372D01*
X159280805Y-121398733D01*
X159210000Y-121387518D01*
X159210000Y-122417290D01*
X159189661Y-122405548D01*
X159038333Y-122365000D01*
X158881667Y-122365000D01*
X158730339Y-122405548D01*
X158710000Y-122417290D01*
X158710000Y-121387518D01*
X158709999Y-121387518D01*
X158639194Y-121398733D01*
X158434100Y-121465372D01*
X158241963Y-121563271D01*
X158067503Y-121690025D01*
X158067502Y-121690025D01*
X157915025Y-121842502D01*
X157915025Y-121842503D01*
X157788271Y-122016963D01*
X157690372Y-122209098D01*
X157623734Y-122414190D01*
X157590000Y-122627179D01*
X157254500Y-122627179D01*
X157254500Y-114999996D01*
X159194435Y-114999996D01*
X159194435Y-115000003D01*
X159214630Y-115179249D01*
X159214631Y-115179254D01*
X159274211Y-115349523D01*
X159274212Y-115349524D01*
X159370184Y-115502262D01*
X159497738Y-115629816D01*
X159588080Y-115686582D01*
X159609417Y-115699989D01*
X159650478Y-115725789D01*
X159723956Y-115751500D01*
X159820745Y-115785368D01*
X159820750Y-115785369D01*
X159999996Y-115805565D01*
X160000000Y-115805565D01*
X160000004Y-115805565D01*
X160179249Y-115785369D01*
X160179252Y-115785368D01*
X160179255Y-115785368D01*
X160349522Y-115725789D01*
X160475700Y-115646505D01*
X160541672Y-115627500D01*
X161958328Y-115627500D01*
X162024300Y-115646506D01*
X162109417Y-115699989D01*
X162150478Y-115725789D01*
X162223956Y-115751500D01*
X162320745Y-115785368D01*
X162320750Y-115785369D01*
X162499996Y-115805565D01*
X162500000Y-115805565D01*
X162500004Y-115805565D01*
X162679249Y-115785369D01*
X162679252Y-115785368D01*
X162679255Y-115785368D01*
X162849522Y-115725789D01*
X162975700Y-115646505D01*
X163041672Y-115627500D01*
X170458328Y-115627500D01*
X170524300Y-115646506D01*
X170609417Y-115699989D01*
X170650478Y-115725789D01*
X170723956Y-115751500D01*
X170820745Y-115785368D01*
X170820750Y-115785369D01*
X170999996Y-115805565D01*
X171000000Y-115805565D01*
X171000004Y-115805565D01*
X171179249Y-115785369D01*
X171179252Y-115785368D01*
X171179255Y-115785368D01*
X171349522Y-115725789D01*
X171475700Y-115646505D01*
X171541672Y-115627500D01*
X177248500Y-115627500D01*
X177315539Y-115647185D01*
X177361294Y-115699989D01*
X177372500Y-115751500D01*
X177372500Y-122458328D01*
X177353494Y-122524300D01*
X177274211Y-122650476D01*
X177214631Y-122820745D01*
X177214630Y-122820750D01*
X177194435Y-122999996D01*
X177194435Y-123000003D01*
X177214630Y-123179249D01*
X177214631Y-123179254D01*
X177274211Y-123349523D01*
X177328623Y-123436118D01*
X177370184Y-123502262D01*
X177497738Y-123629816D01*
X177650478Y-123725789D01*
X177722244Y-123750901D01*
X177820745Y-123785368D01*
X177820750Y-123785369D01*
X177999996Y-123805565D01*
X178000000Y-123805565D01*
X178000004Y-123805565D01*
X178179249Y-123785369D01*
X178179252Y-123785368D01*
X178179255Y-123785368D01*
X178349522Y-123725789D01*
X178502262Y-123629816D01*
X178629816Y-123502262D01*
X178725789Y-123349522D01*
X178785368Y-123179255D01*
X178805565Y-123000000D01*
X178796739Y-122921667D01*
X178785369Y-122820750D01*
X178785368Y-122820745D01*
X178760613Y-122750000D01*
X178725789Y-122650478D01*
X178690717Y-122594662D01*
X178646506Y-122524300D01*
X178627500Y-122458328D01*
X178627500Y-117329983D01*
X186424500Y-117329983D01*
X186424500Y-118670001D01*
X186424501Y-118670018D01*
X186435000Y-118772796D01*
X186435001Y-118772799D01*
X186490185Y-118939331D01*
X186490186Y-118939334D01*
X186582288Y-119088656D01*
X186706344Y-119212712D01*
X186855666Y-119304814D01*
X186855667Y-119304814D01*
X186855670Y-119304816D01*
X186856828Y-119305356D01*
X186857488Y-119305937D01*
X186861813Y-119308605D01*
X186861357Y-119309343D01*
X186909268Y-119351527D01*
X186928422Y-119418720D01*
X186908208Y-119485601D01*
X186892108Y-119505420D01*
X186750022Y-119647506D01*
X186623271Y-119821963D01*
X186525372Y-120014098D01*
X186458733Y-120219190D01*
X186447519Y-120290000D01*
X187477291Y-120290000D01*
X187465548Y-120310339D01*
X187425000Y-120461667D01*
X187425000Y-120618333D01*
X187465548Y-120769661D01*
X187477291Y-120790000D01*
X186447519Y-120790000D01*
X186458733Y-120860809D01*
X186525372Y-121065901D01*
X186623271Y-121258036D01*
X186750025Y-121432496D01*
X186750025Y-121432497D01*
X186902502Y-121584974D01*
X187076963Y-121711728D01*
X187269098Y-121809627D01*
X187474190Y-121876265D01*
X187687180Y-121910000D01*
X187770000Y-121910000D01*
X187770000Y-121082709D01*
X187790339Y-121094452D01*
X187941667Y-121135000D01*
X188098333Y-121135000D01*
X188249661Y-121094452D01*
X188270000Y-121082709D01*
X188270000Y-121910000D01*
X188352820Y-121910000D01*
X188565809Y-121876265D01*
X188770901Y-121809627D01*
X188963036Y-121711728D01*
X189137496Y-121584974D01*
X189137497Y-121584974D01*
X189289974Y-121432497D01*
X189289974Y-121432496D01*
X189416728Y-121258036D01*
X189514627Y-121065901D01*
X189581266Y-120860809D01*
X189592481Y-120790000D01*
X188562709Y-120790000D01*
X188574452Y-120769661D01*
X188615000Y-120618333D01*
X188615000Y-120461667D01*
X188574452Y-120310339D01*
X188562709Y-120290000D01*
X189592481Y-120290000D01*
X189581266Y-120219190D01*
X189514627Y-120014098D01*
X189416728Y-119821963D01*
X189289974Y-119647503D01*
X189289974Y-119647502D01*
X189147892Y-119505420D01*
X189114407Y-119444097D01*
X189119391Y-119374405D01*
X189161263Y-119318472D01*
X189183177Y-119305353D01*
X189184323Y-119304817D01*
X189184334Y-119304814D01*
X189333656Y-119212712D01*
X189457712Y-119088656D01*
X189549814Y-118939334D01*
X189604999Y-118772797D01*
X189615500Y-118670009D01*
X189615499Y-117329992D01*
X189604999Y-117227203D01*
X189549814Y-117060666D01*
X189457712Y-116911344D01*
X189333656Y-116787288D01*
X189184334Y-116695186D01*
X189017797Y-116640001D01*
X189017795Y-116640000D01*
X188915010Y-116629500D01*
X187124998Y-116629500D01*
X187124981Y-116629501D01*
X187022203Y-116640000D01*
X187022200Y-116640001D01*
X186855668Y-116695185D01*
X186855663Y-116695187D01*
X186706342Y-116787289D01*
X186582289Y-116911342D01*
X186490187Y-117060663D01*
X186490186Y-117060666D01*
X186435001Y-117227203D01*
X186435001Y-117227204D01*
X186435000Y-117227204D01*
X186424500Y-117329983D01*
X178627500Y-117329983D01*
X178627500Y-115541671D01*
X178646507Y-115475698D01*
X178725788Y-115349524D01*
X178769085Y-115225788D01*
X178785368Y-115179255D01*
X178785369Y-115179249D01*
X178805565Y-115000003D01*
X178805565Y-114999996D01*
X178785369Y-114820750D01*
X178785368Y-114820745D01*
X178725789Y-114650478D01*
X178646505Y-114524299D01*
X178627500Y-114458328D01*
X178627500Y-109059983D01*
X186404500Y-109059983D01*
X186404500Y-110400001D01*
X186404501Y-110400018D01*
X186415000Y-110502796D01*
X186415001Y-110502799D01*
X186470185Y-110669331D01*
X186470187Y-110669336D01*
X186496940Y-110712710D01*
X186562288Y-110818656D01*
X186686344Y-110942712D01*
X186835666Y-111034814D01*
X186835667Y-111034814D01*
X186835670Y-111034816D01*
X186836828Y-111035356D01*
X186837488Y-111035937D01*
X186841813Y-111038605D01*
X186841357Y-111039343D01*
X186889268Y-111081527D01*
X186908422Y-111148720D01*
X186888208Y-111215601D01*
X186872108Y-111235420D01*
X186730022Y-111377506D01*
X186603271Y-111551963D01*
X186505372Y-111744098D01*
X186438733Y-111949190D01*
X186427519Y-112020000D01*
X187457291Y-112020000D01*
X187445548Y-112040339D01*
X187405000Y-112191667D01*
X187405000Y-112348333D01*
X187445548Y-112499661D01*
X187457291Y-112520000D01*
X186427519Y-112520000D01*
X186438733Y-112590809D01*
X186505372Y-112795901D01*
X186603271Y-112988036D01*
X186730025Y-113162496D01*
X186730025Y-113162497D01*
X186882502Y-113314974D01*
X187056963Y-113441728D01*
X187249098Y-113539627D01*
X187454190Y-113606265D01*
X187667180Y-113640000D01*
X187750000Y-113640000D01*
X187750000Y-112812709D01*
X187770339Y-112824452D01*
X187921667Y-112865000D01*
X188078333Y-112865000D01*
X188229661Y-112824452D01*
X188250000Y-112812709D01*
X188250000Y-113640000D01*
X188332820Y-113640000D01*
X188545809Y-113606265D01*
X188750901Y-113539627D01*
X188943036Y-113441728D01*
X189117496Y-113314974D01*
X189117497Y-113314974D01*
X189269974Y-113162497D01*
X189269974Y-113162496D01*
X189396728Y-112988036D01*
X189494627Y-112795901D01*
X189561266Y-112590809D01*
X189572481Y-112520000D01*
X188542709Y-112520000D01*
X188554452Y-112499661D01*
X188595000Y-112348333D01*
X188595000Y-112191667D01*
X188554452Y-112040339D01*
X188542709Y-112020000D01*
X189572481Y-112020000D01*
X189561266Y-111949190D01*
X189494627Y-111744098D01*
X189396728Y-111551963D01*
X189269974Y-111377503D01*
X189269974Y-111377502D01*
X189127892Y-111235420D01*
X189094407Y-111174097D01*
X189099391Y-111104405D01*
X189141263Y-111048472D01*
X189163177Y-111035353D01*
X189164323Y-111034817D01*
X189164334Y-111034814D01*
X189313656Y-110942712D01*
X189437712Y-110818656D01*
X189529814Y-110669334D01*
X189584999Y-110502797D01*
X189595500Y-110400009D01*
X189595499Y-109059992D01*
X189584999Y-108957203D01*
X189529814Y-108790666D01*
X189437712Y-108641344D01*
X189313656Y-108517288D01*
X189164334Y-108425186D01*
X188997797Y-108370001D01*
X188997795Y-108370000D01*
X188895010Y-108359500D01*
X187104998Y-108359500D01*
X187104981Y-108359501D01*
X187002203Y-108370000D01*
X187002200Y-108370001D01*
X186835668Y-108425185D01*
X186835663Y-108425187D01*
X186686342Y-108517289D01*
X186562289Y-108641342D01*
X186470187Y-108790663D01*
X186470185Y-108790668D01*
X186442349Y-108874670D01*
X186415001Y-108957203D01*
X186415001Y-108957204D01*
X186415000Y-108957204D01*
X186404500Y-109059983D01*
X178627500Y-109059983D01*
X178627500Y-108041671D01*
X178646507Y-107975698D01*
X178664952Y-107946344D01*
X178725789Y-107849522D01*
X178785368Y-107679255D01*
X178785369Y-107679249D01*
X178805565Y-107500003D01*
X178805565Y-107499996D01*
X178785369Y-107320750D01*
X178785368Y-107320745D01*
X178725788Y-107150476D01*
X178646506Y-107024300D01*
X178627500Y-106958328D01*
X178627500Y-101559983D01*
X186424500Y-101559983D01*
X186424500Y-102900001D01*
X186424501Y-102900018D01*
X186435000Y-103002796D01*
X186435001Y-103002799D01*
X186489398Y-103166955D01*
X186490186Y-103169334D01*
X186582288Y-103318656D01*
X186706344Y-103442712D01*
X186855666Y-103534814D01*
X186855667Y-103534814D01*
X186855670Y-103534816D01*
X186856828Y-103535356D01*
X186857488Y-103535937D01*
X186861813Y-103538605D01*
X186861357Y-103539343D01*
X186909268Y-103581527D01*
X186928422Y-103648720D01*
X186908208Y-103715601D01*
X186892108Y-103735420D01*
X186750022Y-103877506D01*
X186623271Y-104051963D01*
X186525372Y-104244098D01*
X186458733Y-104449190D01*
X186447519Y-104520000D01*
X187477291Y-104520000D01*
X187465548Y-104540339D01*
X187425000Y-104691667D01*
X187425000Y-104848333D01*
X187465548Y-104999661D01*
X187477291Y-105020000D01*
X186447519Y-105020000D01*
X186458733Y-105090809D01*
X186525372Y-105295901D01*
X186623271Y-105488036D01*
X186750025Y-105662496D01*
X186750025Y-105662497D01*
X186902502Y-105814974D01*
X187076963Y-105941728D01*
X187269098Y-106039627D01*
X187474190Y-106106265D01*
X187687180Y-106140000D01*
X187770000Y-106140000D01*
X187770000Y-105312709D01*
X187790339Y-105324452D01*
X187941667Y-105365000D01*
X188098333Y-105365000D01*
X188249661Y-105324452D01*
X188270000Y-105312709D01*
X188270000Y-106140000D01*
X188352820Y-106140000D01*
X188565809Y-106106265D01*
X188770901Y-106039627D01*
X188963036Y-105941728D01*
X189137496Y-105814974D01*
X189137497Y-105814974D01*
X189289974Y-105662497D01*
X189289974Y-105662496D01*
X189416728Y-105488036D01*
X189514627Y-105295901D01*
X189581266Y-105090809D01*
X189592481Y-105020000D01*
X188562709Y-105020000D01*
X188574452Y-104999661D01*
X188615000Y-104848333D01*
X188615000Y-104691667D01*
X188574452Y-104540339D01*
X188562709Y-104520000D01*
X189592481Y-104520000D01*
X189581266Y-104449190D01*
X189514627Y-104244098D01*
X189416728Y-104051963D01*
X189289974Y-103877503D01*
X189289974Y-103877502D01*
X189147892Y-103735420D01*
X189114407Y-103674097D01*
X189119391Y-103604405D01*
X189161263Y-103548472D01*
X189183177Y-103535353D01*
X189184323Y-103534817D01*
X189184334Y-103534814D01*
X189333656Y-103442712D01*
X189457712Y-103318656D01*
X189549814Y-103169334D01*
X189604999Y-103002797D01*
X189615500Y-102900009D01*
X189615499Y-101559992D01*
X189604999Y-101457203D01*
X189549814Y-101290666D01*
X189457712Y-101141344D01*
X189333656Y-101017288D01*
X189240888Y-100960069D01*
X189184336Y-100925187D01*
X189184331Y-100925185D01*
X189182862Y-100924698D01*
X189017797Y-100870001D01*
X189017795Y-100870000D01*
X188915010Y-100859500D01*
X187124998Y-100859500D01*
X187124981Y-100859501D01*
X187022203Y-100870000D01*
X187022200Y-100870001D01*
X186855668Y-100925185D01*
X186855663Y-100925187D01*
X186706342Y-101017289D01*
X186582289Y-101141342D01*
X186490187Y-101290663D01*
X186490185Y-101290668D01*
X186462349Y-101374670D01*
X186435001Y-101457203D01*
X186435001Y-101457204D01*
X186435000Y-101457204D01*
X186424500Y-101559983D01*
X178627500Y-101559983D01*
X178627500Y-100055940D01*
X178647185Y-99988901D01*
X178655574Y-99978490D01*
X178655082Y-99978098D01*
X178659418Y-99972659D01*
X178659423Y-99972655D01*
X178755396Y-99819915D01*
X178814975Y-99649648D01*
X178815217Y-99647502D01*
X178835172Y-99470396D01*
X178835172Y-99470389D01*
X178814976Y-99291143D01*
X178814975Y-99291138D01*
X178791945Y-99225321D01*
X178755396Y-99120871D01*
X178676112Y-98994692D01*
X178657107Y-98928721D01*
X178657107Y-93829983D01*
X186384500Y-93829983D01*
X186384500Y-95170001D01*
X186384501Y-95170018D01*
X186395000Y-95272796D01*
X186395001Y-95272799D01*
X186450185Y-95439331D01*
X186450187Y-95439336D01*
X186457341Y-95450934D01*
X186542288Y-95588656D01*
X186666344Y-95712712D01*
X186815666Y-95804814D01*
X186815667Y-95804814D01*
X186815670Y-95804816D01*
X186816828Y-95805356D01*
X186817488Y-95805937D01*
X186821813Y-95808605D01*
X186821357Y-95809343D01*
X186869268Y-95851527D01*
X186888422Y-95918720D01*
X186868208Y-95985601D01*
X186852108Y-96005420D01*
X186710022Y-96147506D01*
X186583271Y-96321963D01*
X186485372Y-96514098D01*
X186418733Y-96719190D01*
X186407519Y-96790000D01*
X187437291Y-96790000D01*
X187425548Y-96810339D01*
X187385000Y-96961667D01*
X187385000Y-97118333D01*
X187425548Y-97269661D01*
X187437291Y-97290000D01*
X186407519Y-97290000D01*
X186418733Y-97360809D01*
X186485372Y-97565901D01*
X186583271Y-97758036D01*
X186710025Y-97932496D01*
X186710025Y-97932497D01*
X186862502Y-98084974D01*
X187036963Y-98211728D01*
X187229098Y-98309627D01*
X187434190Y-98376265D01*
X187647180Y-98410000D01*
X187730000Y-98410000D01*
X187730000Y-97582709D01*
X187750339Y-97594452D01*
X187901667Y-97635000D01*
X188058333Y-97635000D01*
X188209661Y-97594452D01*
X188230000Y-97582709D01*
X188230000Y-98410000D01*
X188312820Y-98410000D01*
X188525809Y-98376265D01*
X188730901Y-98309627D01*
X188923036Y-98211728D01*
X189097496Y-98084974D01*
X189097497Y-98084974D01*
X189249974Y-97932497D01*
X189249974Y-97932496D01*
X189376728Y-97758036D01*
X189474627Y-97565901D01*
X189541266Y-97360809D01*
X189552481Y-97290000D01*
X188522709Y-97290000D01*
X188534452Y-97269661D01*
X188575000Y-97118333D01*
X188575000Y-96961667D01*
X188534452Y-96810339D01*
X188522709Y-96790000D01*
X189552481Y-96790000D01*
X189541266Y-96719190D01*
X189474627Y-96514098D01*
X189376728Y-96321963D01*
X189249974Y-96147503D01*
X189249974Y-96147502D01*
X189107892Y-96005420D01*
X189074407Y-95944097D01*
X189079391Y-95874405D01*
X189121263Y-95818472D01*
X189143177Y-95805353D01*
X189144323Y-95804817D01*
X189144334Y-95804814D01*
X189293656Y-95712712D01*
X189417712Y-95588656D01*
X189509814Y-95439334D01*
X189564999Y-95272797D01*
X189575500Y-95170009D01*
X189575499Y-93829992D01*
X189574554Y-93820745D01*
X189564999Y-93727203D01*
X189564998Y-93727200D01*
X189509814Y-93560666D01*
X189417712Y-93411344D01*
X189293656Y-93287288D01*
X189144334Y-93195186D01*
X188977797Y-93140001D01*
X188977795Y-93140000D01*
X188875010Y-93129500D01*
X187084998Y-93129500D01*
X187084981Y-93129501D01*
X186982203Y-93140000D01*
X186982200Y-93140001D01*
X186815668Y-93195185D01*
X186815663Y-93195187D01*
X186666342Y-93287289D01*
X186542289Y-93411342D01*
X186450187Y-93560663D01*
X186450186Y-93560666D01*
X186395001Y-93727203D01*
X186395001Y-93727204D01*
X186395000Y-93727204D01*
X186384500Y-93829983D01*
X178657107Y-93829983D01*
X178657107Y-92071278D01*
X178676114Y-92005305D01*
X178679446Y-92000003D01*
X178755396Y-91879129D01*
X178814975Y-91708862D01*
X178817382Y-91687502D01*
X178835172Y-91529610D01*
X178835172Y-91529603D01*
X178814976Y-91350357D01*
X178814975Y-91350352D01*
X178770440Y-91223078D01*
X178755396Y-91180085D01*
X178659423Y-91027345D01*
X178531869Y-90899791D01*
X178451870Y-90849524D01*
X178379130Y-90803818D01*
X178208861Y-90744238D01*
X178208856Y-90744237D01*
X178029611Y-90724042D01*
X178029603Y-90724042D01*
X177850357Y-90744237D01*
X177850352Y-90744238D01*
X177680083Y-90803818D01*
X177527344Y-90899791D01*
X177399791Y-91027344D01*
X177303818Y-91180083D01*
X177244238Y-91350352D01*
X177244237Y-91350357D01*
X177224042Y-91529603D01*
X177224042Y-91529610D01*
X177244237Y-91708856D01*
X177244238Y-91708861D01*
X177303818Y-91879131D01*
X177368470Y-91982023D01*
X177379766Y-92000000D01*
X177383100Y-92005305D01*
X177402107Y-92071278D01*
X177402107Y-98928721D01*
X177383101Y-98994693D01*
X177303818Y-99120869D01*
X177244238Y-99291138D01*
X177244237Y-99291143D01*
X177224042Y-99470389D01*
X177224042Y-99470396D01*
X177244237Y-99649642D01*
X177244238Y-99649647D01*
X177303818Y-99819917D01*
X177353493Y-99898972D01*
X177372500Y-99964945D01*
X177372500Y-106958328D01*
X177353494Y-107024300D01*
X177274211Y-107150476D01*
X177214631Y-107320745D01*
X177214630Y-107320750D01*
X177194435Y-107499996D01*
X177194435Y-107500003D01*
X177214630Y-107679249D01*
X177214631Y-107679254D01*
X177274211Y-107849524D01*
X177353493Y-107975698D01*
X177372500Y-108041671D01*
X177372500Y-114248500D01*
X177352815Y-114315539D01*
X177300011Y-114361294D01*
X177248500Y-114372500D01*
X171541672Y-114372500D01*
X171475700Y-114353494D01*
X171349523Y-114274211D01*
X171179254Y-114214631D01*
X171179249Y-114214630D01*
X171000004Y-114194435D01*
X170999996Y-114194435D01*
X170820750Y-114214630D01*
X170820745Y-114214631D01*
X170650476Y-114274211D01*
X170524300Y-114353494D01*
X170458328Y-114372500D01*
X163041672Y-114372500D01*
X162975700Y-114353494D01*
X162849523Y-114274211D01*
X162679254Y-114214631D01*
X162679249Y-114214630D01*
X162500004Y-114194435D01*
X162499996Y-114194435D01*
X162320750Y-114214630D01*
X162320745Y-114214631D01*
X162150476Y-114274211D01*
X162024300Y-114353494D01*
X161958328Y-114372500D01*
X160541672Y-114372500D01*
X160475700Y-114353494D01*
X160349523Y-114274211D01*
X160179254Y-114214631D01*
X160179249Y-114214630D01*
X160000004Y-114194435D01*
X159999996Y-114194435D01*
X159820750Y-114214630D01*
X159820745Y-114214631D01*
X159650476Y-114274211D01*
X159497737Y-114370184D01*
X159370184Y-114497737D01*
X159274211Y-114650476D01*
X159214631Y-114820745D01*
X159214630Y-114820750D01*
X159194435Y-114999996D01*
X157254500Y-114999996D01*
X157254500Y-108364983D01*
X164589500Y-108364983D01*
X164589500Y-110155001D01*
X164589501Y-110155018D01*
X164600000Y-110257796D01*
X164600001Y-110257799D01*
X164637584Y-110371216D01*
X164655186Y-110424334D01*
X164747288Y-110573656D01*
X164871344Y-110697712D01*
X165020666Y-110789814D01*
X165187203Y-110844999D01*
X165289991Y-110855500D01*
X166630008Y-110855499D01*
X166732797Y-110844999D01*
X166899334Y-110789814D01*
X167048656Y-110697712D01*
X167172712Y-110573656D01*
X167264814Y-110424334D01*
X167264817Y-110424322D01*
X167265129Y-110423657D01*
X167265469Y-110423269D01*
X167268605Y-110418187D01*
X167269473Y-110418722D01*
X167311299Y-110371216D01*
X167378491Y-110352060D01*
X167445373Y-110372272D01*
X167465195Y-110388375D01*
X167607179Y-110530359D01*
X167781701Y-110657157D01*
X167973911Y-110755092D01*
X168179074Y-110821754D01*
X168246796Y-110832480D01*
X168392134Y-110855500D01*
X168392139Y-110855500D01*
X168607866Y-110855500D01*
X168726230Y-110836752D01*
X168820926Y-110821754D01*
X169026089Y-110755092D01*
X169218299Y-110657157D01*
X169392821Y-110530359D01*
X169545359Y-110377821D01*
X169669991Y-110206279D01*
X169725321Y-110163614D01*
X169794934Y-110157635D01*
X169856729Y-110190241D01*
X169870627Y-110206279D01*
X169995025Y-110377496D01*
X169995025Y-110377497D01*
X170147502Y-110529974D01*
X170321963Y-110656728D01*
X170514098Y-110754627D01*
X170719190Y-110821266D01*
X170790000Y-110832481D01*
X170790000Y-109802709D01*
X170810339Y-109814452D01*
X170961667Y-109855000D01*
X171118333Y-109855000D01*
X171269661Y-109814452D01*
X171290000Y-109802709D01*
X171290000Y-110832480D01*
X171360809Y-110821266D01*
X171565901Y-110754627D01*
X171758036Y-110656728D01*
X171932496Y-110529974D01*
X171932497Y-110529974D01*
X172084974Y-110377497D01*
X172084974Y-110377496D01*
X172211728Y-110203036D01*
X172309627Y-110010901D01*
X172376265Y-109805809D01*
X172410000Y-109592820D01*
X172410000Y-109510000D01*
X171582709Y-109510000D01*
X171594452Y-109489661D01*
X171635000Y-109338333D01*
X171635000Y-109181667D01*
X171594452Y-109030339D01*
X171582709Y-109010000D01*
X172410000Y-109010000D01*
X172410000Y-108927179D01*
X172376265Y-108714190D01*
X172309627Y-108509098D01*
X172211728Y-108316963D01*
X172084974Y-108142503D01*
X172084974Y-108142502D01*
X171932497Y-107990025D01*
X171758036Y-107863271D01*
X171565899Y-107765372D01*
X171360805Y-107698733D01*
X171290000Y-107687518D01*
X171290000Y-108717290D01*
X171269661Y-108705548D01*
X171118333Y-108665000D01*
X170961667Y-108665000D01*
X170810339Y-108705548D01*
X170790000Y-108717290D01*
X170790000Y-107687518D01*
X170789999Y-107687518D01*
X170719194Y-107698733D01*
X170514100Y-107765372D01*
X170321963Y-107863271D01*
X170147503Y-107990025D01*
X170147502Y-107990025D01*
X169995024Y-108142503D01*
X169870627Y-108313720D01*
X169815296Y-108356385D01*
X169745683Y-108362364D01*
X169683888Y-108329758D01*
X169669991Y-108313720D01*
X169545359Y-108142179D01*
X169392821Y-107989641D01*
X169218299Y-107862843D01*
X169026089Y-107764908D01*
X168820926Y-107698246D01*
X168820924Y-107698245D01*
X168820922Y-107698245D01*
X168607866Y-107664500D01*
X168607861Y-107664500D01*
X168392139Y-107664500D01*
X168392134Y-107664500D01*
X168179077Y-107698245D01*
X167973908Y-107764909D01*
X167781700Y-107862843D01*
X167607180Y-107989640D01*
X167465195Y-108131625D01*
X167403872Y-108165109D01*
X167334180Y-108160125D01*
X167278247Y-108118253D01*
X167265132Y-108096348D01*
X167264815Y-108095669D01*
X167264814Y-108095668D01*
X167264814Y-108095666D01*
X167172712Y-107946344D01*
X167048656Y-107822288D01*
X166899334Y-107730186D01*
X166732797Y-107675001D01*
X166732795Y-107675000D01*
X166630010Y-107664500D01*
X165289998Y-107664500D01*
X165289981Y-107664501D01*
X165187203Y-107675000D01*
X165187200Y-107675001D01*
X165020668Y-107730185D01*
X165020663Y-107730187D01*
X164871342Y-107822289D01*
X164747289Y-107946342D01*
X164655187Y-108095663D01*
X164655185Y-108095668D01*
X164643974Y-108129501D01*
X164600001Y-108262203D01*
X164600001Y-108262204D01*
X164600000Y-108262204D01*
X164589500Y-108364983D01*
X157254500Y-108364983D01*
X157254500Y-107065196D01*
X157249345Y-107039284D01*
X157249344Y-107039280D01*
X157230386Y-106943966D01*
X157199824Y-106870184D01*
X157183083Y-106829767D01*
X157114414Y-106726996D01*
X157114413Y-106726994D01*
X157114411Y-106726992D01*
X157027008Y-106639589D01*
X156325852Y-105938433D01*
X156292367Y-105877110D01*
X156290314Y-105864648D01*
X156285368Y-105820745D01*
X156225789Y-105650478D01*
X156129816Y-105497738D01*
X156002262Y-105370184D01*
X155899422Y-105305565D01*
X155849523Y-105274211D01*
X155679254Y-105214631D01*
X155679249Y-105214630D01*
X155500004Y-105194435D01*
X155499995Y-105194435D01*
X155416382Y-105203855D01*
X155347561Y-105191800D01*
X155296182Y-105144450D01*
X155278500Y-105080635D01*
X155278500Y-100719950D01*
X155284245Y-100686137D01*
X155283819Y-100686040D01*
X155285365Y-100679261D01*
X155285368Y-100679255D01*
X155288905Y-100647861D01*
X155305565Y-100500003D01*
X155305565Y-100499996D01*
X155285369Y-100320750D01*
X155285368Y-100320745D01*
X155252141Y-100225788D01*
X155225789Y-100150478D01*
X155129816Y-99997738D01*
X155002262Y-99870184D01*
X154925102Y-99821701D01*
X154849523Y-99774211D01*
X154679254Y-99714631D01*
X154679249Y-99714630D01*
X154500004Y-99694435D01*
X154499996Y-99694435D01*
X154320750Y-99714630D01*
X154320745Y-99714631D01*
X154150476Y-99774211D01*
X153997737Y-99870184D01*
X153870184Y-99997737D01*
X153774206Y-100150484D01*
X153773220Y-100152533D01*
X153772231Y-100153627D01*
X153770506Y-100156374D01*
X153770024Y-100156071D01*
X153726393Y-100204389D01*
X153658965Y-100222697D01*
X153592342Y-100201644D01*
X153573823Y-100186404D01*
X153325852Y-99938433D01*
X153292367Y-99877110D01*
X153290314Y-99864648D01*
X153285368Y-99820745D01*
X153225789Y-99650478D01*
X153225267Y-99649648D01*
X153131237Y-99500000D01*
X153129816Y-99497738D01*
X153002262Y-99370184D01*
X152949059Y-99336754D01*
X152849523Y-99274211D01*
X152679254Y-99214631D01*
X152679249Y-99214630D01*
X152500004Y-99194435D01*
X152499996Y-99194435D01*
X152435388Y-99201714D01*
X152366566Y-99189659D01*
X152315187Y-99142310D01*
X152297563Y-99074699D01*
X152298285Y-99064610D01*
X152305565Y-99000002D01*
X152305565Y-98999996D01*
X152285369Y-98820750D01*
X152285368Y-98820745D01*
X152225789Y-98650478D01*
X152129816Y-98497738D01*
X152002262Y-98370184D01*
X151849523Y-98274211D01*
X151679254Y-98214631D01*
X151679249Y-98214630D01*
X151500004Y-98194435D01*
X151499996Y-98194435D01*
X151320750Y-98214630D01*
X151320742Y-98214632D01*
X151292454Y-98224531D01*
X151222675Y-98228092D01*
X151162048Y-98193363D01*
X151129821Y-98131370D01*
X151127500Y-98107489D01*
X151127500Y-94541671D01*
X151146507Y-94475698D01*
X151225788Y-94349524D01*
X151270805Y-94220873D01*
X151285368Y-94179255D01*
X151288080Y-94155185D01*
X151305565Y-94000003D01*
X151305565Y-93999996D01*
X151285369Y-93820750D01*
X151285368Y-93820745D01*
X151261218Y-93751728D01*
X151225789Y-93650478D01*
X151129816Y-93497738D01*
X151002262Y-93370184D01*
X150849523Y-93274211D01*
X150679254Y-93214631D01*
X150679249Y-93214630D01*
X150500004Y-93194435D01*
X150499996Y-93194435D01*
X150320750Y-93214630D01*
X150320745Y-93214631D01*
X150150476Y-93274211D01*
X149997737Y-93370184D01*
X149870185Y-93497736D01*
X149856493Y-93519527D01*
X149804157Y-93565817D01*
X149735104Y-93576464D01*
X149671256Y-93548088D01*
X149632885Y-93489698D01*
X149627500Y-93453553D01*
X149627500Y-92541671D01*
X149646507Y-92475698D01*
X149725788Y-92349524D01*
X149732620Y-92330000D01*
X149785368Y-92179255D01*
X149785369Y-92179249D01*
X149805565Y-92000003D01*
X149805565Y-91999996D01*
X149785369Y-91820750D01*
X149785368Y-91820745D01*
X149746216Y-91708856D01*
X149725789Y-91650478D01*
X149629816Y-91497738D01*
X149502262Y-91370184D01*
X149490321Y-91362681D01*
X149349523Y-91274211D01*
X149179254Y-91214631D01*
X149179249Y-91214630D01*
X149000004Y-91194435D01*
X148999996Y-91194435D01*
X148820750Y-91214630D01*
X148820742Y-91214632D01*
X148792454Y-91224531D01*
X148722675Y-91228092D01*
X148662048Y-91193363D01*
X148629821Y-91131370D01*
X148627500Y-91107489D01*
X148627500Y-91041671D01*
X148646507Y-90975698D01*
X148725788Y-90849524D01*
X148725789Y-90849522D01*
X148785368Y-90679255D01*
X148785369Y-90679249D01*
X148805565Y-90500003D01*
X148805565Y-90499996D01*
X148785369Y-90320750D01*
X148785368Y-90320745D01*
X148725788Y-90150476D01*
X148629815Y-89997737D01*
X148502262Y-89870184D01*
X148349523Y-89774211D01*
X148179254Y-89714631D01*
X148179249Y-89714630D01*
X148000004Y-89694435D01*
X147993036Y-89694435D01*
X147993036Y-89691468D01*
X147937210Y-89681634D01*
X147885877Y-89634234D01*
X147868319Y-89566607D01*
X147890110Y-89500222D01*
X147904569Y-89482849D01*
X148061567Y-89325850D01*
X148122888Y-89292367D01*
X148135345Y-89290315D01*
X148179255Y-89285368D01*
X148349522Y-89225789D01*
X148502262Y-89129816D01*
X148629816Y-89002262D01*
X148725789Y-88849522D01*
X148785368Y-88679255D01*
X148785369Y-88679249D01*
X148805565Y-88500003D01*
X148805565Y-88499996D01*
X148785369Y-88320750D01*
X148785368Y-88320745D01*
X148768590Y-88272796D01*
X148725789Y-88150478D01*
X148712927Y-88130009D01*
X148629815Y-87997737D01*
X148502262Y-87870184D01*
X148349523Y-87774211D01*
X148179254Y-87714631D01*
X148179249Y-87714630D01*
X148000004Y-87694435D01*
X147999996Y-87694435D01*
X147820750Y-87714630D01*
X147820745Y-87714631D01*
X147650476Y-87774211D01*
X147497737Y-87870184D01*
X147370184Y-87997737D01*
X147274210Y-88150478D01*
X147214632Y-88320745D01*
X147209686Y-88364637D01*
X147182618Y-88429051D01*
X147174147Y-88438432D01*
X146738401Y-88874180D01*
X146599992Y-89012589D01*
X146567069Y-89045512D01*
X146512586Y-89099994D01*
X146512585Y-89099996D01*
X146443233Y-89203789D01*
X146441586Y-89208393D01*
X146396614Y-89316964D01*
X146396612Y-89316972D01*
X146382184Y-89389506D01*
X146382185Y-89389507D01*
X146372500Y-89438198D01*
X146372500Y-104458328D01*
X146353494Y-104524300D01*
X146274211Y-104650476D01*
X146214631Y-104820745D01*
X146214630Y-104820750D01*
X146194435Y-104999996D01*
X146194435Y-105000003D01*
X146214630Y-105179249D01*
X146214631Y-105179254D01*
X146274211Y-105349523D01*
X146361245Y-105488036D01*
X146370184Y-105502262D01*
X146497738Y-105629816D01*
X146588080Y-105686582D01*
X146632721Y-105714632D01*
X146650478Y-105725789D01*
X146788860Y-105774211D01*
X146820745Y-105785368D01*
X146820750Y-105785369D01*
X146999996Y-105805565D01*
X147000000Y-105805565D01*
X147000003Y-105805565D01*
X147152862Y-105788342D01*
X147221684Y-105800396D01*
X147271740Y-105845590D01*
X147332148Y-105941728D01*
X147370184Y-106002262D01*
X147497738Y-106129816D01*
X147582423Y-106183027D01*
X147654409Y-106228259D01*
X147700700Y-106280594D01*
X147711657Y-106347136D01*
X147694435Y-106499995D01*
X147694435Y-106500003D01*
X147714630Y-106679249D01*
X147714631Y-106679254D01*
X147774211Y-106849523D01*
X147833554Y-106943966D01*
X147870184Y-107002262D01*
X147997738Y-107129816D01*
X148150478Y-107225789D01*
X148320745Y-107285368D01*
X148320750Y-107285369D01*
X148499996Y-107305565D01*
X148500000Y-107305565D01*
X148500004Y-107305565D01*
X148679249Y-107285369D01*
X148679252Y-107285368D01*
X148679255Y-107285368D01*
X148849522Y-107225789D01*
X149002262Y-107129816D01*
X149129816Y-107002262D01*
X149225789Y-106849522D01*
X149285368Y-106679255D01*
X149290313Y-106635361D01*
X149317378Y-106570951D01*
X149325842Y-106561575D01*
X149487411Y-106400008D01*
X149556083Y-106297233D01*
X149586043Y-106224902D01*
X149603386Y-106183034D01*
X149627500Y-106061803D01*
X149627500Y-105938197D01*
X149627500Y-105046446D01*
X149647185Y-104979407D01*
X149699989Y-104933652D01*
X149769147Y-104923708D01*
X149832703Y-104952733D01*
X149856492Y-104980472D01*
X149870184Y-105002262D01*
X149997738Y-105129816D01*
X150065973Y-105172691D01*
X150132721Y-105214632D01*
X150150478Y-105225789D01*
X150288860Y-105274211D01*
X150320745Y-105285368D01*
X150320750Y-105285369D01*
X150499996Y-105305565D01*
X150500000Y-105305565D01*
X150500004Y-105305565D01*
X150679249Y-105285369D01*
X150679252Y-105285368D01*
X150679255Y-105285368D01*
X150849522Y-105225789D01*
X150867279Y-105214632D01*
X150934027Y-105172691D01*
X151001264Y-105153690D01*
X151065973Y-105172691D01*
X151150475Y-105225788D01*
X151320745Y-105285368D01*
X151320750Y-105285369D01*
X151499996Y-105305565D01*
X151500000Y-105305565D01*
X151500004Y-105305565D01*
X151679249Y-105285369D01*
X151679252Y-105285368D01*
X151679255Y-105285368D01*
X151849522Y-105225789D01*
X152002262Y-105129816D01*
X152129816Y-105002262D01*
X152225789Y-104849522D01*
X152285368Y-104679255D01*
X152285369Y-104679249D01*
X152305565Y-104500003D01*
X152305565Y-104499996D01*
X152285369Y-104320750D01*
X152285368Y-104320745D01*
X152248558Y-104215548D01*
X152225789Y-104150478D01*
X152146505Y-104024299D01*
X152127500Y-103958328D01*
X152127500Y-100892510D01*
X152147185Y-100825471D01*
X152199989Y-100779716D01*
X152269147Y-100769772D01*
X152292451Y-100775467D01*
X152320745Y-100785368D01*
X152364635Y-100790313D01*
X152429048Y-100817378D01*
X152438433Y-100825852D01*
X153533181Y-101920600D01*
X153566666Y-101981923D01*
X153569500Y-102008281D01*
X153569500Y-114882718D01*
X153549815Y-114949757D01*
X153497011Y-114995512D01*
X153427853Y-115005456D01*
X153364297Y-114976431D01*
X153357819Y-114970399D01*
X152900010Y-114512590D01*
X152888820Y-114505114D01*
X152877782Y-114497738D01*
X152874316Y-114495422D01*
X152797239Y-114443920D01*
X152797226Y-114443913D01*
X152763785Y-114430062D01*
X152683035Y-114396614D01*
X152683027Y-114396612D01*
X152561807Y-114372500D01*
X152561803Y-114372500D01*
X146041672Y-114372500D01*
X145975700Y-114353494D01*
X145849523Y-114274211D01*
X145679254Y-114214631D01*
X145679249Y-114214630D01*
X145500004Y-114194435D01*
X145499996Y-114194435D01*
X145320750Y-114214630D01*
X145320745Y-114214631D01*
X145150476Y-114274211D01*
X145024300Y-114353494D01*
X144958328Y-114372500D01*
X137541672Y-114372500D01*
X137475700Y-114353494D01*
X137349521Y-114274210D01*
X137179249Y-114214630D01*
X137135361Y-114209685D01*
X137070948Y-114182617D01*
X137061566Y-114174146D01*
X136900010Y-114012590D01*
X136877783Y-113997739D01*
X136877782Y-113997738D01*
X136797239Y-113943920D01*
X136797226Y-113943913D01*
X136763785Y-113930062D01*
X136683035Y-113896614D01*
X136683027Y-113896612D01*
X136561807Y-113872500D01*
X136561803Y-113872500D01*
X135541672Y-113872500D01*
X135475700Y-113853494D01*
X135349523Y-113774211D01*
X135179254Y-113714631D01*
X135179249Y-113714630D01*
X135000004Y-113694435D01*
X134999996Y-113694435D01*
X134820750Y-113714630D01*
X134820745Y-113714631D01*
X134650476Y-113774211D01*
X134497737Y-113870184D01*
X134370184Y-113997737D01*
X134274211Y-114150476D01*
X134214631Y-114320745D01*
X134214630Y-114320750D01*
X134194435Y-114499996D01*
X95000000Y-114499996D01*
X95000000Y-108829983D01*
X125884500Y-108829983D01*
X125884500Y-110170001D01*
X125884501Y-110170018D01*
X125895000Y-110272796D01*
X125895001Y-110272799D01*
X125943356Y-110418722D01*
X125950186Y-110439334D01*
X126042288Y-110588656D01*
X126166344Y-110712712D01*
X126315666Y-110804814D01*
X126315667Y-110804814D01*
X126315670Y-110804816D01*
X126316828Y-110805356D01*
X126317488Y-110805937D01*
X126321813Y-110808605D01*
X126321357Y-110809343D01*
X126369268Y-110851527D01*
X126388422Y-110918720D01*
X126368208Y-110985601D01*
X126352108Y-111005420D01*
X126210022Y-111147506D01*
X126083271Y-111321963D01*
X125985372Y-111514098D01*
X125918733Y-111719190D01*
X125907519Y-111790000D01*
X126937291Y-111790000D01*
X126925548Y-111810339D01*
X126885000Y-111961667D01*
X126885000Y-112118333D01*
X126925548Y-112269661D01*
X126937291Y-112290000D01*
X125907519Y-112290000D01*
X125918733Y-112360809D01*
X125985372Y-112565901D01*
X126083271Y-112758036D01*
X126210025Y-112932496D01*
X126210025Y-112932497D01*
X126362502Y-113084974D01*
X126536963Y-113211728D01*
X126729098Y-113309627D01*
X126934190Y-113376265D01*
X127147180Y-113410000D01*
X127230000Y-113410000D01*
X127230000Y-112582709D01*
X127250339Y-112594452D01*
X127401667Y-112635000D01*
X127558333Y-112635000D01*
X127709661Y-112594452D01*
X127730000Y-112582709D01*
X127730000Y-113410000D01*
X127812820Y-113410000D01*
X128025809Y-113376265D01*
X128230901Y-113309627D01*
X128423036Y-113211728D01*
X128597496Y-113084974D01*
X128597497Y-113084974D01*
X128749974Y-112932497D01*
X128749974Y-112932496D01*
X128876728Y-112758036D01*
X128974627Y-112565901D01*
X129041266Y-112360809D01*
X129052481Y-112290000D01*
X128022709Y-112290000D01*
X128034452Y-112269661D01*
X128075000Y-112118333D01*
X128075000Y-111961667D01*
X128034452Y-111810339D01*
X128022709Y-111790000D01*
X129052481Y-111790000D01*
X129041266Y-111719190D01*
X128974627Y-111514098D01*
X128876728Y-111321963D01*
X128749974Y-111147503D01*
X128749974Y-111147502D01*
X128607892Y-111005420D01*
X128574407Y-110944097D01*
X128579391Y-110874405D01*
X128621263Y-110818472D01*
X128643177Y-110805353D01*
X128644323Y-110804817D01*
X128644334Y-110804814D01*
X128793656Y-110712712D01*
X128917712Y-110588656D01*
X129009814Y-110439334D01*
X129064999Y-110272797D01*
X129075500Y-110170009D01*
X129075499Y-108829992D01*
X129074554Y-108820745D01*
X129064999Y-108727203D01*
X129064998Y-108727200D01*
X129044387Y-108665000D01*
X129009814Y-108560666D01*
X128917712Y-108411344D01*
X128793656Y-108287288D01*
X128644334Y-108195186D01*
X128477797Y-108140001D01*
X128477795Y-108140000D01*
X128375010Y-108129500D01*
X126584998Y-108129500D01*
X126584981Y-108129501D01*
X126482203Y-108140000D01*
X126482200Y-108140001D01*
X126315668Y-108195185D01*
X126315663Y-108195187D01*
X126166342Y-108287289D01*
X126042289Y-108411342D01*
X125950187Y-108560663D01*
X125950186Y-108560666D01*
X125895001Y-108727203D01*
X125895001Y-108727204D01*
X125895000Y-108727204D01*
X125884500Y-108829983D01*
X95000000Y-108829983D01*
X95000000Y-106499996D01*
X136194435Y-106499996D01*
X136194435Y-106500003D01*
X136214630Y-106679249D01*
X136214631Y-106679254D01*
X136274211Y-106849524D01*
X136353493Y-106975698D01*
X136372500Y-107041671D01*
X136372500Y-108458328D01*
X136353494Y-108524300D01*
X136274211Y-108650476D01*
X136214631Y-108820745D01*
X136214630Y-108820750D01*
X136194435Y-108999996D01*
X136194435Y-109000003D01*
X136214630Y-109179249D01*
X136214631Y-109179254D01*
X136274211Y-109349523D01*
X136362266Y-109489661D01*
X136370184Y-109502262D01*
X136497738Y-109629816D01*
X136650478Y-109725789D01*
X136679997Y-109736118D01*
X136820745Y-109785368D01*
X136820750Y-109785369D01*
X136999996Y-109805565D01*
X137000000Y-109805565D01*
X137000004Y-109805565D01*
X137179249Y-109785369D01*
X137179252Y-109785368D01*
X137179255Y-109785368D01*
X137349522Y-109725789D01*
X137502262Y-109629816D01*
X137629816Y-109502262D01*
X137725789Y-109349522D01*
X137785368Y-109179255D01*
X137802147Y-109030339D01*
X137805565Y-109000003D01*
X137805565Y-108999996D01*
X137785369Y-108820750D01*
X137785368Y-108820745D01*
X137772469Y-108783882D01*
X137725789Y-108650478D01*
X137720048Y-108641342D01*
X137646506Y-108524300D01*
X137627500Y-108458328D01*
X137627500Y-107041671D01*
X137646507Y-106975698D01*
X137653053Y-106965281D01*
X137695176Y-106898242D01*
X137725788Y-106849524D01*
X137728231Y-106842543D01*
X137785368Y-106679255D01*
X137789837Y-106639590D01*
X137805565Y-106500003D01*
X137805565Y-106499996D01*
X137785369Y-106320750D01*
X137785368Y-106320745D01*
X137773408Y-106286565D01*
X137725789Y-106150478D01*
X137629816Y-105997738D01*
X137502262Y-105870184D01*
X137463121Y-105845590D01*
X137349523Y-105774211D01*
X137179254Y-105714631D01*
X137179249Y-105714630D01*
X137000004Y-105694435D01*
X136999996Y-105694435D01*
X136820750Y-105714630D01*
X136820745Y-105714631D01*
X136650476Y-105774211D01*
X136497737Y-105870184D01*
X136370184Y-105997737D01*
X136274211Y-106150476D01*
X136214631Y-106320745D01*
X136214630Y-106320750D01*
X136194435Y-106499996D01*
X95000000Y-106499996D01*
X95000000Y-103419429D01*
X117182000Y-103419429D01*
X117182000Y-105580570D01*
X117213433Y-105738594D01*
X117213435Y-105738602D01*
X117275096Y-105887466D01*
X117364619Y-106021447D01*
X117478552Y-106135380D01*
X117478555Y-106135382D01*
X117612532Y-106224902D01*
X117761398Y-106286565D01*
X117919429Y-106317999D01*
X117919433Y-106318000D01*
X117919434Y-106318000D01*
X118080567Y-106318000D01*
X118080568Y-106317999D01*
X118238602Y-106286565D01*
X118387468Y-106224902D01*
X118521445Y-106135382D01*
X118635382Y-106021445D01*
X118724902Y-105887468D01*
X118729193Y-105877110D01*
X118740620Y-105849522D01*
X118786565Y-105738602D01*
X118818000Y-105580566D01*
X118818000Y-103890187D01*
X118837685Y-103823148D01*
X118854310Y-103802515D01*
X119011238Y-103645586D01*
X119011243Y-103645583D01*
X119021443Y-103635382D01*
X119021445Y-103635382D01*
X119135382Y-103521445D01*
X119135618Y-103521090D01*
X119171236Y-103467784D01*
X119171238Y-103467780D01*
X119224903Y-103387468D01*
X119286565Y-103238602D01*
X119300816Y-103166956D01*
X119318000Y-103080566D01*
X119318000Y-99919434D01*
X119286565Y-99761398D01*
X119252540Y-99679255D01*
X119224903Y-99612533D01*
X119135380Y-99478552D01*
X119021447Y-99364619D01*
X118887466Y-99275096D01*
X118738602Y-99213435D01*
X118738594Y-99213433D01*
X118580570Y-99182000D01*
X118580566Y-99182000D01*
X118419434Y-99182000D01*
X118419429Y-99182000D01*
X118261405Y-99213433D01*
X118261397Y-99213435D01*
X118112533Y-99275096D01*
X117978552Y-99364619D01*
X117864619Y-99478552D01*
X117775096Y-99612533D01*
X117713435Y-99761397D01*
X117713433Y-99761405D01*
X117682000Y-99919429D01*
X117682000Y-102609810D01*
X117662315Y-102676849D01*
X117645681Y-102697491D01*
X117364620Y-102978551D01*
X117364617Y-102978555D01*
X117275100Y-103112525D01*
X117275093Y-103112538D01*
X117213436Y-103261393D01*
X117213433Y-103261405D01*
X117182000Y-103419429D01*
X95000000Y-103419429D01*
X95000000Y-95397135D01*
X105007000Y-95397135D01*
X105007000Y-97492870D01*
X105007001Y-97492876D01*
X105013408Y-97552483D01*
X105063702Y-97687328D01*
X105063706Y-97687335D01*
X105149952Y-97802544D01*
X105149955Y-97802547D01*
X105265164Y-97888793D01*
X105265171Y-97888797D01*
X105400017Y-97939091D01*
X105400016Y-97939091D01*
X105406944Y-97939835D01*
X105459627Y-97945500D01*
X107460372Y-97945499D01*
X107519983Y-97939091D01*
X107654831Y-97888796D01*
X107770046Y-97802546D01*
X107856296Y-97687331D01*
X107866690Y-97659460D01*
X107908560Y-97603527D01*
X107974023Y-97579108D01*
X108042297Y-97593958D01*
X108055746Y-97602465D01*
X108238462Y-97735217D01*
X108370599Y-97802544D01*
X108442244Y-97839049D01*
X108659751Y-97909721D01*
X108659752Y-97909721D01*
X108659755Y-97909722D01*
X108885646Y-97945500D01*
X108885647Y-97945500D01*
X109114353Y-97945500D01*
X109114354Y-97945500D01*
X109340245Y-97909722D01*
X109340248Y-97909721D01*
X109340249Y-97909721D01*
X109557755Y-97839049D01*
X109557755Y-97839048D01*
X109557758Y-97839048D01*
X109761538Y-97735217D01*
X109946566Y-97600786D01*
X110108286Y-97439066D01*
X110169683Y-97354559D01*
X110225012Y-97311896D01*
X110294625Y-97305917D01*
X110356420Y-97338523D01*
X110370314Y-97354556D01*
X110431714Y-97439066D01*
X110593434Y-97600786D01*
X110778462Y-97735217D01*
X110910599Y-97802544D01*
X110982244Y-97839049D01*
X111199751Y-97909721D01*
X111199752Y-97909721D01*
X111199755Y-97909722D01*
X111425646Y-97945500D01*
X111425647Y-97945500D01*
X111654353Y-97945500D01*
X111654354Y-97945500D01*
X111880245Y-97909722D01*
X111880248Y-97909721D01*
X111880249Y-97909721D01*
X112097755Y-97839049D01*
X112097755Y-97839048D01*
X112097758Y-97839048D01*
X112301538Y-97735217D01*
X112486566Y-97600786D01*
X112648286Y-97439066D01*
X112782717Y-97254038D01*
X112886548Y-97050258D01*
X112957222Y-96832745D01*
X112993000Y-96606854D01*
X112993000Y-96283146D01*
X112957222Y-96057255D01*
X112957221Y-96057251D01*
X112957221Y-96057250D01*
X112886549Y-95839744D01*
X112870683Y-95808605D01*
X112782717Y-95635962D01*
X112648286Y-95450934D01*
X112486566Y-95289214D01*
X112301538Y-95154783D01*
X112097755Y-95050950D01*
X111880248Y-94980278D01*
X111694812Y-94950908D01*
X111654354Y-94944500D01*
X111425646Y-94944500D01*
X111385188Y-94950908D01*
X111199753Y-94980278D01*
X111199750Y-94980278D01*
X110982244Y-95050950D01*
X110778461Y-95154783D01*
X110712550Y-95202671D01*
X110593434Y-95289214D01*
X110593432Y-95289216D01*
X110593431Y-95289216D01*
X110431715Y-95450932D01*
X110370318Y-95535438D01*
X110314987Y-95578103D01*
X110245374Y-95584082D01*
X110183579Y-95551476D01*
X110169682Y-95535438D01*
X110158773Y-95520423D01*
X110108286Y-95450934D01*
X109946566Y-95289214D01*
X109761538Y-95154783D01*
X109557755Y-95050950D01*
X109340248Y-94980278D01*
X109154812Y-94950908D01*
X109114354Y-94944500D01*
X108885646Y-94944500D01*
X108845188Y-94950908D01*
X108659753Y-94980278D01*
X108659750Y-94980278D01*
X108442244Y-95050950D01*
X108238461Y-95154783D01*
X108134194Y-95230538D01*
X108076032Y-95272796D01*
X108055759Y-95287525D01*
X107989952Y-95311005D01*
X107921898Y-95295180D01*
X107873203Y-95245074D01*
X107866690Y-95230538D01*
X107856296Y-95202669D01*
X107856293Y-95202664D01*
X107770047Y-95087455D01*
X107770044Y-95087452D01*
X107654835Y-95001206D01*
X107654828Y-95001202D01*
X107519982Y-94950908D01*
X107519983Y-94950908D01*
X107460383Y-94944501D01*
X107460381Y-94944500D01*
X107460373Y-94944500D01*
X107460364Y-94944500D01*
X105459629Y-94944500D01*
X105459623Y-94944501D01*
X105400016Y-94950908D01*
X105265171Y-95001202D01*
X105265164Y-95001206D01*
X105149955Y-95087452D01*
X105149952Y-95087455D01*
X105063706Y-95202664D01*
X105063702Y-95202671D01*
X105013408Y-95337517D01*
X105007001Y-95397116D01*
X105007000Y-95397135D01*
X95000000Y-95397135D01*
X95000000Y-86829983D01*
X97404500Y-86829983D01*
X97404500Y-88170001D01*
X97404501Y-88170018D01*
X97415000Y-88272796D01*
X97415001Y-88272799D01*
X97469887Y-88438432D01*
X97470186Y-88439334D01*
X97562288Y-88588656D01*
X97686344Y-88712712D01*
X97835666Y-88804814D01*
X97835668Y-88804814D01*
X97835669Y-88804815D01*
X97836348Y-88805132D01*
X97836735Y-88805473D01*
X97841813Y-88808605D01*
X97841277Y-88809472D01*
X97888787Y-88851304D01*
X97907939Y-88918498D01*
X97887723Y-88985379D01*
X97871625Y-89005195D01*
X97729640Y-89147180D01*
X97602843Y-89321700D01*
X97504909Y-89513908D01*
X97438245Y-89719077D01*
X97404500Y-89932133D01*
X97404500Y-90147866D01*
X97438245Y-90360922D01*
X97438246Y-90360926D01*
X97504908Y-90566089D01*
X97602843Y-90758299D01*
X97729641Y-90932821D01*
X97882179Y-91085359D01*
X98032309Y-91194435D01*
X98053720Y-91209991D01*
X98096385Y-91265321D01*
X98102364Y-91334935D01*
X98069758Y-91396730D01*
X98053720Y-91410627D01*
X97882503Y-91535024D01*
X97730025Y-91687502D01*
X97730025Y-91687503D01*
X97603271Y-91861963D01*
X97505372Y-92054098D01*
X97438733Y-92259190D01*
X97427519Y-92330000D01*
X98457291Y-92330000D01*
X98445548Y-92350339D01*
X98405000Y-92501667D01*
X98405000Y-92658333D01*
X98445548Y-92809661D01*
X98457291Y-92830000D01*
X97427519Y-92830000D01*
X97438733Y-92900809D01*
X97505372Y-93105901D01*
X97603271Y-93298036D01*
X97730025Y-93472496D01*
X97730025Y-93472497D01*
X97882502Y-93624974D01*
X98056963Y-93751728D01*
X98249098Y-93849627D01*
X98454190Y-93916265D01*
X98667180Y-93950000D01*
X98750000Y-93950000D01*
X98750000Y-93122709D01*
X98770339Y-93134452D01*
X98921667Y-93175000D01*
X99078333Y-93175000D01*
X99229661Y-93134452D01*
X99250000Y-93122709D01*
X99250000Y-93950000D01*
X99332820Y-93950000D01*
X99545809Y-93916265D01*
X99750901Y-93849627D01*
X99943036Y-93751728D01*
X100117496Y-93624974D01*
X100117497Y-93624974D01*
X100269974Y-93472497D01*
X100269974Y-93472496D01*
X100396728Y-93298036D01*
X100494627Y-93105901D01*
X100561266Y-92900809D01*
X100572481Y-92830000D01*
X99542709Y-92830000D01*
X99554452Y-92809661D01*
X99595000Y-92658333D01*
X99595000Y-92501667D01*
X99554452Y-92350339D01*
X99542709Y-92330000D01*
X100572481Y-92330000D01*
X100561266Y-92259190D01*
X100494627Y-92054098D01*
X100396728Y-91861963D01*
X100269974Y-91687503D01*
X100269974Y-91687502D01*
X100117497Y-91535025D01*
X99946279Y-91410627D01*
X99903614Y-91355297D01*
X99897635Y-91285683D01*
X99930241Y-91223888D01*
X99946280Y-91209991D01*
X99967691Y-91194435D01*
X100117821Y-91085359D01*
X100270359Y-90932821D01*
X100397157Y-90758299D01*
X100495092Y-90566089D01*
X100561754Y-90360926D01*
X100579704Y-90247594D01*
X100595500Y-90147866D01*
X100595500Y-89932133D01*
X100561754Y-89719077D01*
X100561754Y-89719074D01*
X100495092Y-89513911D01*
X100397157Y-89321701D01*
X100270359Y-89147179D01*
X100128375Y-89005195D01*
X100094890Y-88943872D01*
X100099874Y-88874180D01*
X100141746Y-88818247D01*
X100163657Y-88805129D01*
X100164322Y-88804817D01*
X100164334Y-88804814D01*
X100313656Y-88712712D01*
X100437712Y-88588656D01*
X100529814Y-88439334D01*
X100548519Y-88382885D01*
X106224500Y-88382885D01*
X106224500Y-91028620D01*
X106224501Y-91028626D01*
X106230908Y-91088233D01*
X106281202Y-91223078D01*
X106281206Y-91223085D01*
X106367452Y-91338294D01*
X106367455Y-91338297D01*
X106482664Y-91424543D01*
X106482671Y-91424547D01*
X106617517Y-91474841D01*
X106617516Y-91474841D01*
X106624444Y-91475585D01*
X106677127Y-91481250D01*
X109322872Y-91481249D01*
X109382483Y-91474841D01*
X109517331Y-91424546D01*
X109632546Y-91338296D01*
X109718796Y-91223081D01*
X109769091Y-91088233D01*
X109775500Y-91028623D01*
X109775499Y-89705745D01*
X111220023Y-89705745D01*
X111220023Y-89705754D01*
X111239903Y-89971040D01*
X111239903Y-89971042D01*
X111299098Y-90230393D01*
X111299104Y-90230412D01*
X111396296Y-90478053D01*
X111529313Y-90708445D01*
X111529320Y-90708456D01*
X111580084Y-90772110D01*
X111580085Y-90772111D01*
X112245884Y-90106311D01*
X112246740Y-90108376D01*
X112339762Y-90247594D01*
X112458156Y-90365988D01*
X112597374Y-90459010D01*
X112599437Y-90459864D01*
X111932839Y-91126461D01*
X112110011Y-91247254D01*
X112110015Y-91247256D01*
X112349695Y-91362681D01*
X112349699Y-91362682D01*
X112603909Y-91441096D01*
X112603915Y-91441097D01*
X112866976Y-91480749D01*
X112866983Y-91480750D01*
X113133017Y-91480750D01*
X113133023Y-91480749D01*
X113396084Y-91441097D01*
X113396090Y-91441096D01*
X113650299Y-91362683D01*
X113889984Y-91247257D01*
X114067159Y-91126461D01*
X113400562Y-90459864D01*
X113402626Y-90459010D01*
X113541844Y-90365988D01*
X113660238Y-90247594D01*
X113753260Y-90108376D01*
X113754114Y-90106312D01*
X114419913Y-90772111D01*
X114419913Y-90772110D01*
X114470688Y-90708443D01*
X114603703Y-90478053D01*
X114700895Y-90230412D01*
X114700901Y-90230393D01*
X114760096Y-89971042D01*
X114760096Y-89971040D01*
X114779977Y-89705754D01*
X114779977Y-89705745D01*
X114760096Y-89440459D01*
X114760096Y-89440457D01*
X114700901Y-89181106D01*
X114700895Y-89181087D01*
X114603703Y-88933446D01*
X114470686Y-88703054D01*
X114419913Y-88639387D01*
X113754114Y-89305186D01*
X113753260Y-89303124D01*
X113660238Y-89163906D01*
X113541844Y-89045512D01*
X113402626Y-88952490D01*
X113400561Y-88951634D01*
X114067159Y-88285037D01*
X113889989Y-88164245D01*
X113889985Y-88164243D01*
X113650299Y-88048816D01*
X113396090Y-87970403D01*
X113396084Y-87970402D01*
X113133023Y-87930750D01*
X112866976Y-87930750D01*
X112603915Y-87970402D01*
X112603909Y-87970403D01*
X112349699Y-88048817D01*
X112349695Y-88048818D01*
X112110012Y-88164244D01*
X112110004Y-88164249D01*
X111932840Y-88285036D01*
X112599438Y-88951634D01*
X112597374Y-88952490D01*
X112458156Y-89045512D01*
X112339762Y-89163906D01*
X112246740Y-89303124D01*
X112245885Y-89305188D01*
X111580084Y-88639387D01*
X111529316Y-88703049D01*
X111396296Y-88933446D01*
X111299104Y-89181087D01*
X111299098Y-89181106D01*
X111239903Y-89440457D01*
X111239903Y-89440459D01*
X111220023Y-89705745D01*
X109775499Y-89705745D01*
X109775499Y-88382878D01*
X109769091Y-88323267D01*
X109768152Y-88320750D01*
X109718797Y-88188421D01*
X109718793Y-88188414D01*
X109632547Y-88073205D01*
X109632544Y-88073202D01*
X109517335Y-87986956D01*
X109517328Y-87986952D01*
X109382482Y-87936658D01*
X109382483Y-87936658D01*
X109322883Y-87930251D01*
X109322881Y-87930250D01*
X109322873Y-87930250D01*
X109322864Y-87930250D01*
X106677129Y-87930250D01*
X106677123Y-87930251D01*
X106617516Y-87936658D01*
X106482671Y-87986952D01*
X106482664Y-87986956D01*
X106367455Y-88073202D01*
X106367452Y-88073205D01*
X106281206Y-88188414D01*
X106281202Y-88188421D01*
X106230908Y-88323267D01*
X106226461Y-88364637D01*
X106224501Y-88382873D01*
X106224500Y-88382885D01*
X100548519Y-88382885D01*
X100584999Y-88272797D01*
X100595500Y-88170009D01*
X100595499Y-86829992D01*
X100594554Y-86820745D01*
X100584999Y-86727203D01*
X100584998Y-86727200D01*
X100529814Y-86560666D01*
X100437712Y-86411344D01*
X100313656Y-86287288D01*
X100164334Y-86195186D01*
X99997797Y-86140001D01*
X99997795Y-86140000D01*
X99895010Y-86129500D01*
X98104998Y-86129500D01*
X98104981Y-86129501D01*
X98002203Y-86140000D01*
X98002200Y-86140001D01*
X97835668Y-86195185D01*
X97835663Y-86195187D01*
X97686342Y-86287289D01*
X97562289Y-86411342D01*
X97470187Y-86560663D01*
X97470186Y-86560666D01*
X97415001Y-86727203D01*
X97415001Y-86727204D01*
X97415000Y-86727204D01*
X97404500Y-86829983D01*
X95000000Y-86829983D01*
X95000000Y-83624000D01*
X95019685Y-83556961D01*
X95072489Y-83511206D01*
X95124000Y-83500000D01*
X123152103Y-83500000D01*
X123219142Y-83519685D01*
G37*
%TD.AperFunction*%
%TD*%
M02*
